<svg width="800" height="359" viewBox="0 0 800 359" fill="none" xmlns="http://www.w3.org/2000/svg">
<path fill-rule="evenodd" clip-rule="evenodd" d="M314.444 0.000457764C228.822 0.000457764 159.412 69.4107 159.412 155.033C159.412 240.654 228.822 310.065 314.444 310.065C314.66 310.065 314.876 310.064 315.092 310.063V0.00178612C314.876 0.000900837 314.66 0.000457764 314.444 0.000457764Z" fill="#EAEBEC"/>
<path d="M0 358.238L200.578 358.238L200.578 157.66L-1.38477e-06 157.66L0 358.238Z" fill="#201F2A"/>
<path d="M0 358.238L200.578 358.238L200.578 157.66L-1.38477e-06 157.66L0 358.238Z" fill="#53B443"/>
<path d="M464.22 200.578L664.799 200.578L664.799 1.9531e-06L464.22 3.33786e-06L464.22 200.578Z" fill="#201F2A"/>
<path d="M464.22 200.578L664.799 200.578L664.799 1.9531e-06L464.22 3.33786e-06L464.22 200.578Z" fill="#EAEBEC"/>
<path fill-rule="evenodd" clip-rule="evenodd" d="M599.493 357.782H599.496L599.913 157.696L399.822 157.279C399.593 267.784 488.988 357.552 599.493 357.782ZM799.999 157.621C799.999 157.784 799.999 157.947 799.999 158.111L799.999 157.621Z" fill="#FEB251"/>
<path fill-rule="evenodd" clip-rule="evenodd" d="M472.979 157.66H315.319V0.000457764H321.08C404.971 0.000457764 472.979 67.8818 472.979 151.618V157.66Z" fill="#2F8ED9"/>
<path fill-rule="evenodd" clip-rule="evenodd" d="M178.681 9.63537V157.66H30.6561V152.252C30.6561 73.487 94.3891 9.63537 173.008 9.63537H178.681Z" fill="#EAEBEC"/>
<path d="M178.985 180.223H201.136V227.258H178.985V261.204H123.032V227.258H30.257V175.764L117.135 54.9403H178.985V180.223ZM123.032 180.223V119.811L80.3126 180.223H123.032Z" fill="white"/>
<path d="M289.522 114.202C282.618 124.174 279.166 138.798 279.166 158.072C279.166 177.346 282.618 192.018 289.522 202.087C296.426 212.059 304.769 217.046 314.55 217.046C324.331 217.046 332.673 212.059 339.578 202.087C346.482 192.018 349.934 177.346 349.934 158.072C349.934 138.798 346.482 124.174 339.578 114.202C332.673 104.229 324.331 99.2424 314.55 99.2424C304.769 99.2424 296.426 104.229 289.522 114.202ZM378.989 79.3928C396.921 99.626 405.887 125.852 405.887 158.072C405.887 190.292 396.921 216.518 378.989 236.752C361.153 256.985 339.674 267.101 314.55 267.101C289.426 267.101 267.898 256.985 249.967 236.752C232.131 216.518 223.213 190.292 223.213 158.072C223.213 125.852 232.131 99.626 249.967 79.3928C267.898 59.1596 289.426 49.043 314.55 49.043C339.674 49.043 361.153 59.1596 378.989 79.3928Z" fill="white"/>
<path d="M578.13 180.223H600.281V227.258H578.13V261.204H522.177V227.258H429.402V175.764L516.28 54.9403H578.13V180.223ZM522.177 180.223V119.811L479.457 180.223H522.177Z" fill="white"/>
</svg>
