<svg width="41" height="17" viewBox="0 0 41 17" fill="none" xmlns="http://www.w3.org/2000/svg">
<path fill-rule="evenodd" clip-rule="evenodd" d="M37.6081 7.03448H0.347656L3.73888 3.51724L0.347656 0H37.6081L40.9993 3.51724L37.6081 7.03448Z" fill="#6FBE92"/>
<path fill-rule="evenodd" clip-rule="evenodd" d="M21.6493 9.96484L19.7897 13.2097L17.93 9.96484H15.6656V16.9993H18.1963V14.1759L19.0571 15.6959H20.5277L21.3832 14.1957V16.9993H23.9137V9.96484H21.6493ZM28.0361 14.0692L28.6254 12.3105L29.2144 14.0692H28.0361ZM30.2149 16.9993H32.7506L30.2692 9.96484H27.5733L25.0916 16.9993H27.6274L27.8572 16.1955H29.9849L30.2149 16.9993ZM40.9989 16.9993L38.601 13.4837L40.9988 9.96484H38.1381L37.1694 11.5022L36.201 9.96484H33.3401L35.7381 13.4837L33.3399 16.9993H36.2047L37.1694 15.4082L38.1341 16.9993H40.9989ZM10.9506 16.9993H13.3072V9.96484H10.9506V16.9993ZM2.11328 16.9993V9.96484H4.20938L6.54099 12.6985V9.96484H9.18314V16.9993H7.08745L4.75584 14.2656V16.9993H2.11328Z" fill="#201F2A"/>
</svg>
