<svg width="85" height="26" viewBox="0 0 85 26" fill="none" xmlns="http://www.w3.org/2000/svg">
<path d="M71.1884 11.1221C69.9134 11.1221 68.8509 12.1846 68.8509 13.4596C68.8509 14.6071 69.7009 15.5846 70.8059 15.7546C72.7184 16.3496 74.1209 17.1146 74.1209 18.7296C74.1209 20.3021 72.7184 22.0446 69.2759 22.0446C66.7259 22.0446 64.5584 21.1096 62.8584 19.8346C62.5184 19.5796 62.0934 19.4521 61.6684 19.4521C60.5634 19.4521 59.5859 20.3871 59.5859 21.5346C59.5859 21.9596 59.7134 22.3846 60.0109 22.7246C61.6684 24.6796 65.4934 25.8271 69.0634 25.8271C75.6509 25.8271 78.5409 22.3421 78.5409 18.2196C78.5409 14.1821 75.7359 12.4821 72.6334 11.4196C72.5484 11.5046 71.6134 11.1221 71.1884 11.1221Z" fill="#201F2A"/>
<path d="M68.8039 0.625C63.4064 0.625 59.8789 3.7275 59.8789 7.8075C59.8789 13.6725 65.9139 14.395 70.1214 15.585C70.2489 15.6275 70.3764 15.67 70.5039 15.7125C69.5264 15.415 68.8464 14.5225 68.8464 13.46C68.8464 12.185 69.9089 11.1225 71.1839 11.1225C71.2264 11.1225 71.3114 11.1225 71.3964 11.1225C67.8689 10.145 64.3839 9.72 64.3839 7.4675C64.3839 5.6825 65.9564 4.45 68.4639 4.45C70.4614 4.45 72.4589 4.96 74.2014 6.1075C74.5839 6.3625 74.9664 6.49 75.3914 6.49C76.4539 6.49 77.5164 5.5975 77.5164 4.4925C77.5164 4.11 77.3889 3.6425 77.0914 3.3025C75.4339 1.56 71.7364 0.625 68.8039 0.625Z" fill="#201F2A"/>
<path d="M71.1891 11.1223C69.9141 11.1223 68.8516 12.1848 68.8516 13.4598C68.8516 14.5223 69.5741 15.4148 70.5091 15.7123C70.6791 15.7548 70.8066 15.7548 70.9766 15.7548C72.2516 15.7548 73.2716 14.7348 73.2716 13.4598C73.2716 12.4398 72.5916 11.5473 71.6566 11.2498C71.5716 11.2073 71.4441 11.2073 71.3591 11.1648C71.3166 11.1648 71.2741 11.1223 71.1891 11.1223Z" fill="#201F2A"/>
<path d="M0 3.43018V23.1077C0 21.8752 1.02 20.8552 2.2525 20.8552H4.505V5.68268H2.2525C1.02 5.68268 0 4.66268 0 3.43018Z" fill="#201F2A"/>
<path d="M20.2744 15.5423C19.0419 15.5423 18.0219 14.5223 18.0219 13.2898C18.0219 17.6673 15.1319 20.8973 11.0944 20.8973H4.54938V23.1498C4.54938 24.3823 3.52938 25.4023 2.29688 25.4023H11.2219H11.2644C17.6819 25.3173 22.5269 20.1323 22.5269 13.2898C22.5269 14.5223 21.5069 15.5423 20.2744 15.5423Z" fill="#201F2A"/>
<path d="M4.5475 23.1072V20.8547H2.2525C1.02 20.8547 0 21.8747 0 23.1072C0 24.3397 1.02 25.3597 2.2525 25.3597C3.5275 25.3597 4.5475 24.3822 4.5475 23.1072Z" fill="#201F2A"/>
<path d="M11.2178 1.17773H2.63281C3.73781 1.34773 4.54531 2.28273 4.54531 3.43023V5.68274H11.1328C15.1278 5.68274 18.0603 8.87023 18.0603 13.2902C18.0603 12.0577 19.0803 11.0377 20.3128 11.0377C21.5453 11.0377 22.5653 12.0577 22.5653 13.2902C22.5228 6.40523 17.6778 1.22023 11.2178 1.17773Z" fill="#201F2A"/>
<path d="M2.2525 5.68249H4.505V3.42999C4.505 2.28249 3.655 1.34749 2.5925 1.17749H2.2525C1.02 1.17749 0 2.15499 0 3.42999C0 4.66249 1.02 5.68249 2.2525 5.68249Z" fill="#201F2A"/>
<path d="M22.5245 13.2476C22.5245 12.0151 21.5045 10.9951 20.272 10.9951C19.0395 10.9951 18.0195 12.0151 18.0195 13.2476C18.0195 14.4801 19.0395 15.5001 20.272 15.5001C21.5045 15.5426 22.5245 14.5226 22.5245 13.2476Z" fill="#201F2A"/>
<path d="M51.8083 16.945L39.0583 1.98496C38.2508 1.04996 36.8058 0.922455 35.8708 1.72996C34.9358 2.53746 34.8083 3.98245 35.6158 4.91745L52.3183 24.595C51.9783 24.2125 51.8083 23.7025 51.8083 23.15V16.945Z" fill="#201F2A"/>
<path d="M54.0611 1.17773C52.8286 1.17773 51.8086 2.19773 51.8086 3.43023V16.9452L55.8036 21.6627C56.1861 22.0877 56.3561 22.6402 56.3561 23.1927C56.3561 23.1502 56.3561 23.1502 56.3561 23.1077V3.43023C56.3136 2.19773 55.2936 1.17773 54.0611 1.17773Z" fill="#201F2A"/>
<path d="M37.8658 13.6719C36.6333 13.6719 35.6133 14.6919 35.6133 15.9244V23.0644C35.6133 24.2969 36.6333 25.3169 37.8658 25.3169C39.0983 25.3169 40.1183 24.2969 40.1183 23.0644V15.9244C40.1183 14.6919 39.0983 13.6719 37.8658 13.6719Z" fill="#201F2A"/>
<path d="M55.8881 24.4674C55.8881 24.4249 55.9306 24.4249 55.9306 24.3824C55.9731 24.3399 55.9731 24.2974 56.0156 24.2549C56.0156 24.2124 56.0581 24.2124 56.0581 24.1699C56.0581 24.1274 56.1006 24.0849 56.1006 24.0424C56.1006 23.9999 56.1431 23.9999 56.1431 23.9574C56.1431 23.9149 56.1856 23.8724 56.1856 23.8724C56.1856 23.8299 56.2281 23.7874 56.2281 23.7449C56.2281 23.7024 56.2281 23.6599 56.2706 23.6599C56.2706 23.6174 56.2706 23.5749 56.3131 23.5324C56.3131 23.4899 56.3131 23.4474 56.3131 23.4049C56.3131 23.3624 56.3131 23.3199 56.3131 23.3199C56.3131 23.2774 56.3131 23.2349 56.3131 23.1924C56.3131 22.6399 56.1431 22.0874 55.7606 21.6624L51.7656 16.9449V23.1499C51.7656 23.7024 51.9781 24.2124 52.2756 24.5949L52.3181 24.6374C52.3606 24.6799 52.4031 24.7224 52.4456 24.7649C52.4456 24.7649 52.4881 24.8074 52.5306 24.8074C52.5731 24.8499 52.6156 24.8499 52.6581 24.8924C52.7006 24.9349 52.7006 24.9349 52.7431 24.9349C52.7856 24.9774 52.8281 24.9774 52.8706 25.0199C52.9131 25.0199 52.9131 25.0624 52.9556 25.0624C52.9981 25.1049 53.0406 25.1049 53.0831 25.1049C53.1256 25.1049 53.1256 25.1474 53.1681 25.1474C53.2106 25.1474 53.2531 25.1899 53.2956 25.1899C53.3381 25.1899 53.3381 25.1899 53.3806 25.2324C53.4231 25.2324 53.5081 25.2749 53.5506 25.2749H53.5931C53.6781 25.2749 53.7206 25.3174 53.8056 25.3174C53.8906 25.3174 53.9756 25.3174 54.0606 25.3174C54.1456 25.3174 54.1881 25.3174 54.2731 25.3174C54.3156 25.3174 54.3156 25.3174 54.3581 25.3174C54.4006 25.3174 54.4431 25.3174 54.4856 25.2749C54.5281 25.2749 54.5281 25.2749 54.5706 25.2749C54.6131 25.2749 54.6556 25.2324 54.6981 25.2324C54.7406 25.2324 54.7406 25.2324 54.7831 25.1899C54.8256 25.1899 54.8681 25.1474 54.9106 25.1474C54.9531 25.1474 54.9531 25.1474 54.9956 25.1049C55.0381 25.1049 55.0806 25.0624 55.1231 25.0624C55.1231 25.0624 55.1656 25.0624 55.1656 25.0199C55.2081 24.9774 55.2506 24.9774 55.2931 24.9349L55.3356 24.8924C55.3781 24.8499 55.4206 24.8499 55.4631 24.8074L55.5056 24.7649C55.5481 24.7224 55.5481 24.7224 55.5906 24.6799C55.6331 24.6374 55.6331 24.6374 55.6756 24.5949C55.7181 24.5524 55.7181 24.5524 55.7606 24.5099C55.8031 24.4674 55.8031 24.4674 55.8456 24.4249C55.8456 24.5099 55.8881 24.4674 55.8881 24.4674Z" fill="#201F2A"/>
<path d="M28.6041 1.17773C27.3716 1.17773 26.3516 2.19773 26.3516 3.43023V23.0227C26.3516 24.2552 27.3716 25.2752 28.6041 25.2752C29.8366 25.2752 30.8566 24.2552 30.8566 23.0227V3.43023C30.8566 2.19773 29.8366 1.17773 28.6041 1.17773Z" fill="#201F2A"/>
<path d="M73.3127 13.4601C73.3127 14.7351 72.2927 15.7551 71.0177 15.7551C69.7427 15.7551 68.7227 14.7351 68.7227 13.4601C68.7227 12.1851 69.7427 11.1651 71.0177 11.1651C72.2927 11.1226 73.3127 12.1851 73.3127 13.4601Z" fill="#201F2A"/>
<path d="M82.7052 1.13488C83.7252 1.13488 84.5327 1.94238 84.5327 2.96238C84.5327 3.98238 83.7252 4.78988 82.7052 4.78988C81.6852 4.78988 80.8777 3.98238 80.8777 2.96238C80.8352 1.94238 81.6852 1.13488 82.7052 1.13488ZM82.7052 0.624878C81.4302 0.624878 80.4102 1.64488 80.4102 2.91988C80.4102 4.19488 81.4302 5.21488 82.7052 5.21488C83.9802 5.21488 85.0002 4.19488 85.0002 2.91988C85.0002 1.68738 83.9802 0.624878 82.7052 0.624878Z" fill="#201F2A"/>
<path d="M82.578 3.17453H82.3655V4.06703C82.3655 4.19453 82.238 4.23703 82.1105 4.23703C81.983 4.23703 81.8555 4.19453 81.8555 4.06703V1.98453C81.8555 1.72953 82.0255 1.64453 82.1955 1.64453H82.833C83.258 1.64453 83.598 1.94203 83.598 2.40953C83.598 2.74953 83.3855 2.96203 83.173 3.08953C83.3005 3.17453 83.3855 3.34453 83.4705 3.47203C83.5555 3.64203 83.598 3.85453 83.7255 4.02453C83.8105 4.19453 83.6405 4.27953 83.513 4.27953C83.343 4.27953 83.3005 4.23703 83.258 4.19453C83.1305 4.06703 83.088 3.76953 82.9605 3.55703C82.8755 3.30203 82.7905 3.17453 82.578 3.17453ZM83.1305 2.40953C83.1305 2.19703 83.003 2.06953 82.833 2.06953H82.408C82.3655 2.06953 82.3655 2.06953 82.3655 2.11203V2.74953H82.833C83.003 2.74953 83.1305 2.62203 83.1305 2.40953Z" fill="#201F2A"/>
</svg>
