<svg width="57" height="57" viewBox="0 0 57 57" fill="none" xmlns="http://www.w3.org/2000/svg">
<circle cx="28.5" cy="28.5" r="28.5" fill="#FB5235"/>
<path d="M22.8343 23.2081C22.4445 21.9385 21.3866 22.0776 20.6633 22.669C18.8814 24.2515 16.5614 27.5733 18.0462 32.3565C19.2898 36.4086 24.4642 39 24.4642 39H18.4322C18.4322 39 15.3176 35.6434 15.0392 31.6956C14.6866 26.7043 16.7655 23.5565 19.1784 21.5043C21.4428 19.5739 23.5958 19 23.5958 19L28 32.875L32.4042 19C32.4042 19 34.5572 19.5739 36.8216 21.5043C39.2345 23.5565 41.3134 26.7043 40.9608 31.6956C40.6824 35.6434 37.5678 39 37.5678 39H31.5358C31.5358 39 36.7098 36.4086 37.9538 32.3565C39.4386 27.5739 37.1186 24.2521 35.3367 22.669C34.6129 22.0776 33.5549 21.9385 33.1657 23.2081C31.8294 27.2603 28.0005 38.8706 28.0005 38.8706C28.0005 38.8706 24.1717 27.2564 22.8354 23.2081H22.8343Z" fill="white"/>
</svg>
