<svg width="119" height="57" viewBox="0 0 119 57" fill="none" xmlns="http://www.w3.org/2000/svg">
<circle cx="90.5" cy="28.5" r="28.5" fill="#8825B6"/>
<path d="M84.8343 23.2081C84.4445 21.9385 83.3866 22.0776 82.6633 22.669C80.8814 24.2515 78.5614 27.5733 80.0462 32.3565C81.2898 36.4086 86.4642 39 86.4642 39H80.4322C80.4322 39 77.3176 35.6434 77.0392 31.6956C76.6866 26.7043 78.7655 23.5565 81.1784 21.5043C83.4428 19.5739 85.5958 19 85.5958 19L90 32.875L94.4042 19C94.4042 19 96.5572 19.5739 98.8216 21.5043C101.234 23.5565 103.313 26.7043 102.961 31.6956C102.682 35.6434 99.5678 39 99.5678 39H93.5358C93.5358 39 98.7098 36.4086 99.9538 32.3565C101.439 27.5739 99.1186 24.2521 97.3367 22.669C96.6129 22.0776 95.5549 21.9385 95.1657 23.2081C93.8294 27.2603 90.0005 38.8706 90.0005 38.8706C90.0005 38.8706 86.1717 27.2564 84.8354 23.2081H84.8343Z" fill="white"/>
<circle cx="59.5" cy="28.5" r="28.5" fill="#FEB251"/>
<path d="M53.8343 23.2081C53.4445 21.9385 52.3866 22.0776 51.6633 22.669C49.8814 24.2515 47.5614 27.5733 49.0462 32.3565C50.2898 36.4086 55.4642 39 55.4642 39H49.4322C49.4322 39 46.3176 35.6434 46.0392 31.6956C45.6866 26.7043 47.7655 23.5565 50.1784 21.5043C52.4428 19.5739 54.5958 19 54.5958 19L59 32.875L63.4042 19C63.4042 19 65.5572 19.5739 67.8216 21.5043C70.2345 23.5565 72.3134 26.7043 71.9608 31.6956C71.6824 35.6434 68.5678 39 68.5678 39H62.5358C62.5358 39 67.7098 36.4086 68.9538 32.3565C70.4386 27.5739 68.1186 24.2521 66.3367 22.669C65.6129 22.0776 64.5549 21.9385 64.1657 23.2081C62.8294 27.2603 59.0005 38.8706 59.0005 38.8706C59.0005 38.8706 55.1717 27.2564 53.8354 23.2081H53.8343Z" fill="white"/>
<circle cx="28.5" cy="28.5" r="28.5" fill="#2F8ED9"/>
<path d="M22.8343 23.2081C22.4445 21.9385 21.3866 22.0776 20.6633 22.669C18.8814 24.2515 16.5614 27.5733 18.0462 32.3565C19.2898 36.4086 24.4642 39 24.4642 39H18.4322C18.4322 39 15.3176 35.6434 15.0392 31.6956C14.6866 26.7043 16.7655 23.5565 19.1784 21.5043C21.4428 19.5739 23.5958 19 23.5958 19L28 32.875L32.4042 19C32.4042 19 34.5572 19.5739 36.8216 21.5043C39.2345 23.5565 41.3134 26.7043 40.9608 31.6956C40.6824 35.6434 37.5678 39 37.5678 39H31.5358C31.5358 39 36.7098 36.4086 37.9538 32.3565C39.4386 27.5739 37.1186 24.2521 35.3367 22.669C34.6129 22.0776 33.5549 21.9385 33.1657 23.2081C31.8294 27.2603 28.0005 38.8706 28.0005 38.8706C28.0005 38.8706 24.1717 27.2564 22.8354 23.2081H22.8343Z" fill="white"/>
</svg>
