<svg width="19" height="14" viewBox="0 0 19 14" fill="none" xmlns="http://www.w3.org/2000/svg">
<path d="M4.49121 3.63965C3.95801 4.36035 3.69141 5.37988 3.69141 6.69824C3.69141 8.0166 3.95801 9.03613 4.49121 9.75684C5.02441 10.4775 5.65723 10.8379 6.38965 10.8379C7.12207 10.8379 7.75488 10.4775 8.28809 9.75684C8.82129 9.03613 9.08789 8.0166 9.08789 6.69824C9.08789 5.37988 8.82129 4.36035 8.28809 3.63965C7.75488 2.91895 7.12207 2.55859 6.38965 2.55859C5.65723 2.55859 5.02441 2.91895 4.49121 3.63965ZM10.2129 1.94336C11.2617 3.14453 11.7861 4.72949 11.7861 6.69824C11.7861 8.66699 11.2617 10.2549 10.2129 11.4619C9.16406 12.6689 7.88965 13.2725 6.38965 13.2725C4.88965 13.2725 3.61523 12.6689 2.56641 11.4619C1.51758 10.2549 0.993164 8.66699 0.993164 6.69824C0.993164 4.72949 1.51758 3.14453 2.56641 1.94336C3.61523 0.736328 4.88965 0.132812 6.38965 0.132812C7.88965 0.132812 9.16406 0.736328 10.2129 1.94336ZM16.1104 0.396484H18.3604V13H15.6621V3.82422H13.5V2.11035C13.8867 2.06348 14.2412 1.97266 14.5635 1.83789C14.8857 1.69727 15.1348 1.54785 15.3105 1.38965C15.4922 1.23145 15.6445 1.0791 15.7676 0.932617C15.8965 0.780273 15.9873 0.651367 16.04 0.545898L16.1104 0.396484Z" fill="#2F8ED9"/>
</svg>
