<svg width="23" height="14" viewBox="0 0 23 14" fill="none" xmlns="http://www.w3.org/2000/svg">
<path d="M4.49121 3.63965C3.95801 4.36035 3.69141 5.37988 3.69141 6.69824C3.69141 8.0166 3.95801 9.03613 4.49121 9.75684C5.02441 10.4775 5.65723 10.8379 6.38965 10.8379C7.12207 10.8379 7.75488 10.4775 8.28809 9.75684C8.82129 9.03613 9.08789 8.0166 9.08789 6.69824C9.08789 5.37988 8.82129 4.36035 8.28809 3.63965C7.75488 2.91895 7.12207 2.55859 6.38965 2.55859C5.65723 2.55859 5.02441 2.91895 4.49121 3.63965ZM10.2129 1.94336C11.2617 3.14453 11.7861 4.72949 11.7861 6.69824C11.7861 8.66699 11.2617 10.2549 10.2129 11.4619C9.16406 12.6689 7.88965 13.2725 6.38965 13.2725C4.88965 13.2725 3.61523 12.6689 2.56641 11.4619C1.51758 10.2549 0.993164 8.66699 0.993164 6.69824C0.993164 4.72949 1.51758 3.14453 2.56641 1.94336C3.61523 0.736328 4.88965 0.132812 6.38965 0.132812C7.88965 0.132812 9.16406 0.736328 10.2129 1.94336ZM22.2275 13H13.4121C13.4121 12.0742 13.5615 11.2363 13.8604 10.4863C14.1592 9.73633 14.5312 9.14453 14.9766 8.71094C15.4219 8.27148 15.9053 7.85547 16.4268 7.46289C16.9482 7.06445 17.4287 6.72754 17.8682 6.45215C18.3135 6.1709 18.6855 5.8457 18.9844 5.47656C19.2891 5.10156 19.4414 4.7002 19.4414 4.27246C19.4414 3.76855 19.2832 3.37305 18.9668 3.08594C18.6562 2.79297 18.2139 2.64648 17.6396 2.64648C17.1826 2.64648 16.7871 2.77539 16.4531 3.0332C16.125 3.29102 15.9082 3.5459 15.8027 3.79785L15.6621 4.17578L13.4121 3.10352C13.4355 3.02148 13.4736 2.91309 13.5264 2.77832C13.5791 2.64355 13.7197 2.40625 13.9482 2.06641C14.1768 1.7207 14.4404 1.41895 14.7393 1.16113C15.0381 0.90332 15.46 0.668945 16.0049 0.458008C16.5557 0.241211 17.1592 0.132812 17.8154 0.132812C19.0986 0.132812 20.1533 0.522461 20.9795 1.30176C21.8115 2.08105 22.2275 3.03906 22.2275 4.17578C22.2275 4.81445 22.0898 5.39453 21.8145 5.91602C21.5391 6.4375 21.1787 6.88281 20.7334 7.25195C20.2881 7.61523 19.8311 7.95215 19.3623 8.2627C18.8994 8.56738 18.4248 8.91602 17.9385 9.30859C17.4521 9.69531 17.083 10.085 16.8311 10.4775H22.2275V13Z" fill="#2F8ED9"/>
</svg>
