<svg width="23" height="14" viewBox="0 0 23 14" fill="none" xmlns="http://www.w3.org/2000/svg">
<path d="M4.49121 3.63965C3.95801 4.36035 3.69141 5.37988 3.69141 6.69824C3.69141 8.0166 3.95801 9.03613 4.49121 9.75684C5.02441 10.4775 5.65723 10.8379 6.38965 10.8379C7.12207 10.8379 7.75488 10.4775 8.28809 9.75684C8.82129 9.03613 9.08789 8.0166 9.08789 6.69824C9.08789 5.37988 8.82129 4.36035 8.28809 3.63965C7.75488 2.91895 7.12207 2.55859 6.38965 2.55859C5.65723 2.55859 5.02441 2.91895 4.49121 3.63965ZM10.2129 1.94336C11.2617 3.14453 11.7861 4.72949 11.7861 6.69824C11.7861 8.66699 11.2617 10.2549 10.2129 11.4619C9.16406 12.6689 7.88965 13.2725 6.38965 13.2725C4.88965 13.2725 3.61523 12.6689 2.56641 11.4619C1.51758 10.2549 0.993164 8.66699 0.993164 6.69824C0.993164 4.72949 1.51758 3.14453 2.56641 1.94336C3.61523 0.736328 4.88965 0.132812 6.38965 0.132812C7.88965 0.132812 9.16406 0.736328 10.2129 1.94336ZM20.1621 6.33789C20.2207 6.36133 20.2998 6.39648 20.3994 6.44336C20.5049 6.48438 20.6865 6.58984 20.9443 6.75977C21.2021 6.92383 21.4277 7.11426 21.6211 7.33105C21.8203 7.54785 22.002 7.84961 22.166 8.23633C22.3301 8.61719 22.4121 9.03613 22.4121 9.49316C22.4121 10.5244 21.9814 11.4121 21.1201 12.1562C20.2646 12.9004 19.1338 13.2725 17.7275 13.2725C17.1299 13.2725 16.5527 13.2021 15.9961 13.0615C15.4453 12.9268 14.9941 12.7627 14.6426 12.5693C14.291 12.376 13.9805 12.1855 13.7109 11.998C13.4473 11.8047 13.2568 11.6348 13.1396 11.4883L12.9551 11.2861L14.5811 9.58105C14.6045 9.61621 14.6426 9.66602 14.6953 9.73047C14.748 9.78906 14.8682 9.89746 15.0557 10.0557C15.2432 10.208 15.4395 10.3457 15.6445 10.4688C15.8555 10.5859 16.1221 10.6914 16.4443 10.7852C16.7725 10.8789 17.1094 10.9258 17.4551 10.9258C18.1523 10.9258 18.6855 10.7734 19.0547 10.4688C19.4297 10.1641 19.6172 9.77734 19.6172 9.30859C19.6172 8.83984 19.4326 8.45312 19.0635 8.14844C18.7002 7.84375 18.1963 7.69141 17.5518 7.69141H16.1982V5.44141H17.4551C17.9824 5.44141 18.3984 5.30078 18.7031 5.01953C19.0137 4.73828 19.1689 4.36914 19.1689 3.91211C19.1689 3.49023 19.0166 3.14453 18.7119 2.875C18.4072 2.60547 17.9883 2.4707 17.4551 2.4707C16.998 2.4707 16.5674 2.57031 16.1631 2.76953C15.7646 2.96875 15.4775 3.16211 15.3018 3.34961L15.0293 3.63965L13.4121 2.02246C13.4473 1.97559 13.5 1.91113 13.5703 1.8291C13.6406 1.74121 13.8076 1.58594 14.0713 1.36328C14.3408 1.14063 14.6279 0.950195 14.9326 0.791992C15.2373 0.62793 15.6416 0.478516 16.1455 0.34375C16.6494 0.203125 17.1768 0.132812 17.7275 0.132812C18.999 0.132812 20.0215 0.469727 20.7949 1.14355C21.5684 1.81152 21.9551 2.64355 21.9551 3.63965C21.9551 4.00879 21.8906 4.35449 21.7617 4.67676C21.6387 4.99316 21.4893 5.25098 21.3135 5.4502C21.1436 5.64941 20.9707 5.81934 20.7949 5.95996C20.625 6.09473 20.4727 6.19141 20.3379 6.25L20.1621 6.33789Z" fill="#2F8ED9"/>
</svg>
