<svg width="15" height="15" viewBox="0 0 15 15" fill="none" xmlns="http://www.w3.org/2000/svg">
<path fill-rule="evenodd" clip-rule="evenodd" d="M13.0208 14.435C13.4113 14.8256 14.0445 14.8256 14.435 14.435C14.8256 14.0445 14.8256 13.4113 14.435 13.0208L8.77841 7.3642L14.4355 1.70714C14.826 1.31661 14.826 0.683449 14.4355 0.292925C14.0449 -0.0975992 13.4118 -0.0975992 13.0213 0.292925L7.3642 5.94998L1.70711 0.292893C1.31658 -0.097631 0.683417 -0.0976312 0.292893 0.292893C-0.0976311 0.683417 -0.0976311 1.31658 0.292893 1.70711L5.94998 7.3642L0.293335 13.0208C-0.0971892 13.4114 -0.0971894 14.0445 0.293335 14.4351C0.683859 14.8256 1.31702 14.8256 1.70755 14.4351L7.3642 8.77841L13.0208 14.435Z" fill="black"/>
</svg>
