<svg width="15" height="11" viewBox="0 0 15 11" fill="none" xmlns="http://www.w3.org/2000/svg">
<path d="M2.43868 0.695801V4.4714C3.05527 3.78602 3.79438 3.44102 4.65155 3.44102C5.09303 3.44102 5.48839 3.51964 5.84306 3.67549C6.19873 3.83042 6.46461 4.02928 6.64418 4.27069C6.82474 4.51441 6.94677 4.78125 7.01274 5.07538C7.07822 5.36813 7.11096 5.82366 7.11096 6.44152V10.4784H5.19522V6.84248C5.19522 6.12103 5.1605 5.66411 5.08758 5.46987C5.01926 5.2796 4.88373 5.11656 4.70314 5.0074C4.51861 4.89132 4.28894 4.83397 4.01165 4.83397C3.69418 4.83397 3.40945 4.90797 3.16192 5.05503C2.90893 5.20302 2.72738 5.42408 2.6123 5.7196C2.49523 6.01558 2.4367 6.45262 2.43868 7.03116L2.4367 10.4784H0.523438V0.695801H2.43918H2.43868ZM9.98209 0.695801V4.4714C10.5992 3.78602 11.3378 3.44102 12.1945 3.44102C12.6345 3.44102 13.0328 3.51964 13.388 3.67549C13.7421 3.83042 14.008 4.02928 14.1866 4.27069C14.3668 4.51279 14.4922 4.78659 14.5552 5.07538C14.6211 5.36813 14.6539 5.82366 14.6539 6.44152V10.4784H12.7401V6.84248C12.7401 6.12103 12.7039 5.66411 12.631 5.46987C12.5627 5.27933 12.4267 5.11621 12.2456 5.0074C12.063 4.89132 11.8314 4.83397 11.5541 4.83397C11.2371 4.83397 10.9524 4.90797 10.7043 5.05503C10.4548 5.20302 10.2723 5.42408 10.1557 5.7196C10.0406 6.01558 9.98209 6.45262 9.98209 7.03116V10.4784H8.06883V0.695801H9.98209Z" fill="#201F2A"/>
</svg>
