<svg width="12" height="12" viewBox="0 0 12 12" fill="none" xmlns="http://www.w3.org/2000/svg">
<path d="M9.6 11.9141V7.34803C9.6 7.34803 9.34286 6.39331 8.4 6.43482C7.45714 6.47633 7.15714 6.62161 6.72857 7.11972V11.9141H4.30714V4.67067H6.70714V5.72916C6.70714 5.72916 7.47857 4.25557 9.10714 4.35935C10.5857 4.46312 11.7 5.33482 11.9357 7.24425H12V11.9141H9.6ZM1.43571 3.7367C0.642857 3.7367 0 3.11406 0 2.32538C0 1.55746 0.642857 0.914062 1.43571 0.914062C2.22857 0.914062 2.87143 1.5367 2.87143 2.32538C2.87143 3.09331 2.22857 3.7367 1.43571 3.7367ZM2.63571 11.9141H0.235714V4.67067H2.63571V11.9141Z" fill="#201F2A"/>
</svg>
