<svg width="43" height="60" viewBox="0 0 43 60" fill="none" xmlns="http://www.w3.org/2000/svg">
<path fill-rule="evenodd" clip-rule="evenodd" d="M21.501 41.2705C21.5 41.2705 21.4991 41.2705 21.4981 41.2705V59.5101C20.9736 59.5101 20.2161 58.7525 20.2161 58.7525C-1.63539 33.6234 0.913248 21.0915 0.984376 20.7649L0.984375 20.7583C0.984375 9.42973 10.168 0.246094 21.4966 0.246094C32.8252 0.246094 42.0088 9.42973 42.0088 20.7583C42.0088 20.7619 42.0088 20.7655 42.0088 20.769C42.0111 20.7619 42.0122 20.7583 42.0122 20.7583C42.0122 20.7583 44.9259 33.2871 22.782 58.7525C22.782 58.7525 22.0245 59.5101 21.5 59.5101V41.2705C21.5003 41.2705 21.5007 41.2705 21.501 41.2705ZM33.6177 20.7583C33.6177 27.4524 28.191 32.8791 21.4968 32.8791C14.8027 32.8791 9.37597 27.4524 9.37597 20.7583C9.37597 14.0641 14.8027 8.6374 21.4968 8.6374C28.191 8.6374 33.6177 14.0641 33.6177 20.7583Z" fill="#FB5235"/>
</svg>
