<svg width="467" height="457" viewBox="0 0 467 457" fill="none" xmlns="http://www.w3.org/2000/svg">
<path d="M67.3227 172.003L76.8158 153.285C79.1315 148.719 82.3987 145.706 86.6174 144.246C90.8168 142.776 95.0156 143.105 99.2139 145.235C103.412 147.364 106.163 150.571 107.468 154.857C108.763 159.114 108.258 163.515 105.952 168.062L102.184 175.491L114.663 181.82L108.937 193.108L67.3227 172.003ZM86.6347 159.031L83.176 165.85L92.0851 170.369L95.5438 163.549C96.2111 162.234 96.3352 160.886 95.9162 159.506C95.4972 158.126 94.6977 157.137 93.5175 156.538C92.3181 155.93 91.0378 155.864 89.6769 156.341C88.316 156.819 87.3019 157.715 86.6347 159.031Z" fill="#201F2A"/>
<path d="M67.3227 172.003L76.8158 153.285C79.1315 148.719 82.3987 145.706 86.6174 144.246C90.8168 142.776 95.0156 143.105 99.2139 145.235C103.412 147.364 106.163 150.571 107.468 154.857C108.763 159.114 108.258 163.515 105.952 168.062L102.184 175.491L114.663 181.82L108.937 193.108L67.3227 172.003ZM86.6347 159.031L83.176 165.85L92.0851 170.369L95.5438 163.549C96.2111 162.234 96.3352 160.886 95.9162 159.506C95.4972 158.126 94.6977 157.137 93.5175 156.538C92.3181 155.93 91.0378 155.864 89.6769 156.341C88.316 156.819 87.3019 157.715 86.6347 159.031Z" fill="#F7F8F9"/>
<path d="M146.93 129.658L165.52 114.509L172.262 122.782L143.86 145.927L114.384 109.756L142.282 87.0217L149.024 95.2952L130.938 110.033L135.563 115.709L149.512 104.342L155.843 112.111L141.894 123.478L146.93 129.658Z" fill="#201F2A"/>
<path d="M146.93 129.658L165.52 114.509L172.262 122.782L143.86 145.927L114.384 109.756L142.282 87.0217L149.024 95.2952L130.938 110.033L135.563 115.709L149.512 104.342L155.843 112.111L141.894 123.478L146.93 129.658Z" fill="#F7F8F9"/>
<path d="M221.59 61.9549L233.286 107.126L221.001 110.307L212.151 76.1293L201.851 78.7964L202.683 82.0095C203.977 87.0075 204.838 91.4567 205.265 95.357C205.713 99.252 205.799 102.524 205.521 105.173C205.238 107.801 204.586 110.042 203.565 111.897C202.544 113.753 201.332 115.176 199.931 116.166C198.555 117.172 196.881 117.93 194.907 118.442C193.836 118.719 192.724 118.883 191.572 118.935C190.447 119.002 189.584 119.002 188.984 118.933L188.115 118.822L185.195 107.545C186.375 107.688 187.395 107.648 188.256 107.425C189.411 107.126 190.33 106.608 191.013 105.87C191.691 105.112 192.207 103.948 192.562 102.377C192.912 100.785 192.909 98.5675 192.554 95.7241C192.219 92.8752 191.517 89.3823 190.446 85.2452L186.751 70.9757L221.59 61.9549Z" fill="#201F2A"/>
<path d="M221.59 61.9549L233.286 107.126L221.001 110.307L212.151 76.1293L201.851 78.7964L202.683 82.0095C203.977 87.0075 204.838 91.4567 205.265 95.357C205.713 99.252 205.799 102.524 205.521 105.173C205.238 107.801 204.586 110.042 203.565 111.897C202.544 113.753 201.332 115.176 199.931 116.166C198.555 117.172 196.881 117.93 194.907 118.442C193.836 118.719 192.724 118.883 191.572 118.935C190.447 119.002 189.584 119.002 188.984 118.933L188.115 118.822L185.195 107.545C186.375 107.688 187.395 107.648 188.256 107.425C189.411 107.126 190.33 106.608 191.013 105.87C191.691 105.112 192.207 103.948 192.562 102.377C192.912 100.785 192.909 98.5675 192.554 95.7241C192.219 92.8752 191.517 89.3823 190.446 85.2452L186.751 70.9757L221.59 61.9549Z" fill="#F7F8F9"/>
<path d="M277.606 82.8731C274.617 84.7748 272.699 87.5873 271.854 91.3105C271.009 95.0337 271.522 98.4089 273.393 101.436C275.264 104.463 277.997 106.385 281.594 107.202C285.19 108.018 288.475 107.462 291.448 105.535C294.443 103.612 296.363 100.789 297.208 97.0655C298.053 93.3423 297.537 89.9776 295.662 86.9715C293.812 83.949 291.089 82.0296 287.493 81.2133C283.896 80.397 280.601 80.9503 277.606 82.8731ZM306.321 81.3164C310.18 87.1527 311.362 93.3603 309.869 99.9393C308.375 106.518 304.626 111.618 298.622 115.238C292.643 118.841 286.121 119.841 279.055 118.237C272.011 116.638 266.56 112.92 262.701 107.084C258.869 101.231 257.7 95.0156 259.193 88.4366C260.686 81.8575 264.422 76.7663 270.401 73.1629C276.406 69.5431 282.93 68.5327 289.975 70.1317C297.04 71.7355 302.489 75.4638 306.321 81.3164Z" fill="#201F2A"/>
<path d="M277.606 82.8731C274.617 84.7748 272.699 87.5873 271.854 91.3105C271.009 95.0337 271.522 98.4089 273.393 101.436C275.264 104.463 277.997 106.385 281.594 107.202C285.19 108.018 288.475 107.462 291.448 105.535C294.443 103.612 296.363 100.789 297.208 97.0655C298.053 93.3423 297.537 89.9776 295.662 86.9715C293.812 83.949 291.089 82.0296 287.493 81.2133C283.896 80.397 280.601 80.9503 277.606 82.8731ZM306.321 81.3164C310.18 87.1527 311.362 93.3603 309.869 99.9393C308.375 106.518 304.626 111.618 298.622 115.238C292.643 118.841 286.121 119.841 279.055 118.237C272.011 116.638 266.56 112.92 262.701 107.084C258.869 101.231 257.7 95.0156 259.193 88.4366C260.686 81.8575 264.422 76.7663 270.401 73.1629C276.406 69.5431 282.93 68.5327 289.975 70.1317C297.04 71.7355 302.489 75.4638 306.321 81.3164Z" fill="#F7F8F9"/>
<path d="M346.41 136.732L338.94 137.896L331.28 147.142L321.533 139.068L351.297 103.134L361.045 111.208L349.567 125.065L372.848 120.984L384.15 130.345L358.99 134.603L355.412 167.131L344.111 157.77L346.41 136.732Z" fill="#201F2A"/>
<path d="M346.41 136.732L338.94 137.896L331.28 147.142L321.533 139.068L351.297 103.134L361.045 111.208L349.567 125.065L372.848 120.984L384.15 130.345L358.99 134.603L355.412 167.131L344.111 157.77L346.41 136.732Z" fill="#F7F8F9"/>
<path d="M389.255 198.861L399.847 189.202L385.626 191.004L389.255 198.861ZM381.578 206.063L375.152 192.15L364.691 193.326L358.961 180.919L408.73 177.393L414.597 190.095L379.646 225.702L373.915 213.295L381.578 206.063Z" fill="#201F2A"/>
<path d="M389.255 198.861L399.847 189.202L385.626 191.004L389.255 198.861ZM381.578 206.063L375.152 192.15L364.691 193.326L358.961 180.919L408.73 177.393L414.597 190.095L379.646 225.702L373.915 213.295L381.578 206.063Z" fill="#F7F8F9"/>
<path d="M377.385 245.016L424.033 246.124L423.732 258.778L388.405 257.939L388.033 273.586L423.36 274.425L423.06 287.079L387.733 286.24L387.606 291.575L366.949 291.084L367.25 278.43L376.586 278.652L377.385 245.016Z" fill="#201F2A"/>
<path d="M377.385 245.016L424.033 246.124L423.732 258.778L388.405 257.939L388.033 273.586L423.36 274.425L423.06 287.079L387.733 286.24L387.606 291.575L366.949 291.084L367.25 278.43L376.586 278.652L377.385 245.016Z" fill="#F7F8F9"/>
<path d="M406.577 330.366L400.595 341.521L377.683 329.234L391.153 359.128L385.955 368.82L344.834 346.769L350.816 335.614L373.728 347.901L360.289 317.949L365.456 308.314L406.577 330.366Z" fill="#201F2A"/>
<path d="M406.577 330.366L400.595 341.521L377.683 329.234L391.153 359.128L385.955 368.82L344.834 346.769L350.816 335.614L373.728 347.901L360.289 317.949L365.456 308.314L406.577 330.366Z" fill="#F7F8F9"/>
<path d="M321.905 420.384L294.589 382.555L304.851 375.144L313.442 387.042L318.85 383.137L316.748 366.553L327.564 358.743L329.673 378.171C329.899 378.114 330.219 378.057 330.632 378C331.041 377.972 331.843 378.009 333.039 378.108C334.247 378.226 335.415 378.453 336.541 378.79C337.663 379.158 338.937 379.829 340.365 380.805C341.787 381.812 343.044 383.071 344.136 384.584C346.791 388.259 347.72 392.27 346.926 396.617C346.126 400.994 343.73 404.624 339.738 407.506L321.905 420.384ZM334.71 395.485C334.94 394.248 334.662 393.084 333.874 391.994C333.1 390.921 332.074 390.297 330.797 390.122C329.52 389.947 328.293 390.285 327.114 391.136L320.071 396.222L325.519 403.767L332.562 398.681C333.758 397.817 334.474 396.752 334.71 395.485Z" fill="#201F2A"/>
<path d="M321.905 420.384L294.589 382.555L304.851 375.144L313.442 387.042L318.85 383.137L316.748 366.553L327.564 358.743L329.673 378.171C329.899 378.114 330.219 378.057 330.632 378C331.041 377.972 331.843 378.009 333.039 378.108C334.247 378.226 335.415 378.453 336.541 378.79C337.663 379.158 338.937 379.829 340.365 380.805C341.787 381.812 343.044 383.071 344.136 384.584C346.791 388.259 347.72 392.27 346.926 396.617C346.126 400.994 343.73 404.624 339.738 407.506L321.905 420.384ZM334.71 395.485C334.94 394.248 334.662 393.084 333.874 391.994C333.1 390.921 332.074 390.297 330.797 390.122C329.52 389.947 328.293 390.285 327.114 391.136L320.071 396.222L325.519 403.767L332.562 398.681C333.758 397.817 334.474 396.752 334.71 395.485Z" fill="#F7F8F9"/>
</svg>
