<svg width="15" height="13" viewBox="0 0 15 13" fill="none" xmlns="http://www.w3.org/2000/svg">
<path d="M14.2677 2.07443C13.7687 2.30703 13.2353 2.46412 12.6732 2.53662C13.2468 2.17412 13.6884 1.60016 13.8949 0.917451C13.3586 1.25276 12.765 1.49745 12.1312 1.62735C11.6236 1.05641 10.9009 0.699951 10.1036 0.699951C8.56931 0.699951 7.32754 2.01099 7.32754 3.62714C7.32754 3.85672 7.35048 4.08026 7.39923 4.29474C5.09062 4.17391 3.04299 3.00787 1.67503 1.23464C1.437 1.66662 1.29934 2.1711 1.29934 2.70578C1.29934 3.72078 1.78974 4.61797 2.53538 5.1436C2.07939 5.13151 1.64922 4.9986 1.2764 4.77808C1.2764 4.79016 1.2764 4.80224 1.2764 4.81433C1.2764 6.23412 2.23425 7.41526 3.50471 7.68412C3.27241 7.75058 3.02578 7.78683 2.77341 7.78683C2.5956 7.78683 2.42066 7.7687 2.25146 7.73245C2.60421 8.89547 3.63089 9.7413 4.84686 9.76547C3.8976 10.5509 2.69884 11.0191 1.39685 11.0191C1.17315 11.0191 0.952331 11.004 0.734375 10.9768C1.96181 11.8166 3.42154 12.2999 4.98738 12.2999C10.0979 12.2999 12.8911 7.83818 12.8911 3.96849C12.8911 3.84162 12.8883 3.71474 12.8825 3.59089C13.4246 3.17703 13.8949 2.66047 14.2677 2.07443Z" fill="#201F2A"/>
</svg>
