<svg width="17" height="10" viewBox="0 0 17 10" fill="none" xmlns="http://www.w3.org/2000/svg">
<path d="M15.6254 1.01551H13.1156C13.0131 1.01551 12.9126 1.04304 12.8247 1.09518C12.7368 1.14732 12.6648 1.22211 12.6163 1.31159C12.6163 1.31159 11.6153 3.13918 11.2938 3.75475C10.4287 5.41071 9.86859 4.89084 9.86859 4.1223V1.47236C9.86859 1.25092 9.77985 1.03855 9.62191 0.881972C9.46396 0.725392 9.24974 0.637426 9.02637 0.637426H7.13931C6.88232 0.618484 6.62471 0.664986 6.39096 0.772516C6.1572 0.880047 5.95505 1.04503 5.80372 1.25181C5.80372 1.25181 6.76194 1.09822 6.76194 2.37817C6.76194 2.69557 6.77843 3.60862 6.79346 4.37444C6.79629 4.4873 6.76413 4.59829 6.70131 4.69245C6.63849 4.7866 6.54804 4.85938 6.44217 4.90096C6.3363 4.94254 6.22012 4.95091 6.1093 4.92495C5.99848 4.89899 5.89836 4.83994 5.82247 4.75578C5.05006 3.69079 4.41025 2.53721 3.91694 1.32009C3.87458 1.22904 3.80676 1.15195 3.72153 1.09797C3.6363 1.04398 3.53723 1.01536 3.43609 1.01551C2.89179 1.01551 1.80258 1.01551 1.15574 1.01551C1.09302 1.01508 1.03113 1.02976 0.975388 1.05828C0.919649 1.0868 0.871727 1.12831 0.83574 1.17925C0.799752 1.23018 0.776776 1.28901 0.768783 1.35069C0.760791 1.41236 0.768022 1.47504 0.789855 1.53334C1.48228 3.41623 4.46502 9.3333 7.86953 9.3333H9.30248C9.45262 9.3333 9.59661 9.27417 9.70278 9.16892C9.80894 9.06367 9.86859 8.92093 9.86859 8.77209V7.9143C9.86859 7.80669 9.90034 7.70144 9.95994 7.6115C10.0195 7.52157 10.1044 7.45088 10.204 7.40816C10.3036 7.36544 10.4137 7.35254 10.5206 7.37107C10.6275 7.38959 10.7267 7.43872 10.8058 7.5124L12.5209 9.10995C12.675 9.25342 12.8784 9.33329 13.0897 9.3333H15.342C16.4283 9.3333 16.4283 8.58603 15.836 8.00779C15.4192 7.60085 13.9151 6.02919 13.9151 6.02919C13.7863 5.89691 13.7095 5.72332 13.6986 5.53979C13.6876 5.35626 13.7432 5.17489 13.8554 5.02847C14.3415 4.39423 15.1367 3.35602 15.4739 2.91126C15.9349 2.30335 16.7692 1.01551 15.6254 1.01551Z" fill="#201F2A"/>
</svg>
