<svg width="12" height="8" viewBox="0 0 12 8" fill="none" xmlns="http://www.w3.org/2000/svg">
<path d="M6.4229 0.963881C5.78424 0.966957 5.37699 0.967754 4.80286 0.967754C4.32266 0.967754 4.05297 1.16857 4.0444 1.28836C4.03656 1.39788 4.28164 1.48644 4.43066 1.57506C4.57451 1.66719 4.70442 1.95965 4.70442 2.15719V3.88031C4.70442 4.04406 4.6684 4.15811 4.54035 4.26484C4.47935 4.31568 4.40684 4.32922 4.32847 4.32877C4.26505 4.32842 4.17878 4.31616 4.1194 4.23675C3.48689 3.39087 3.4848 3.28642 2.59874 1.58184C2.55576 1.49917 2.51331 1.41145 2.4253 1.3455C2.33728 1.27956 2.20686 1.23605 1.99778 1.23605C1.28558 1.23605 0.846044 1.24671 0.377743 1.24671C-0.0655252 1.24671 -0.0228881 1.52755 0.0364846 1.65546C0.567918 2.80028 1.1075 3.89339 1.72778 5.00291C2.45418 6.30225 3.11825 7.08271 4.23565 7.64329C4.49502 7.77341 4.96268 7.90771 5.50319 7.90771H6.65165C6.79922 7.90771 7.04448 7.78743 7.04448 7.62586V6.73572C7.04448 6.48115 7.29015 6.38859 7.42417 6.326C7.58207 6.25226 7.74765 6.36851 7.83106 6.46064C8.47311 7.16976 8.40014 7.09261 8.98515 7.72756C9.11734 7.87103 9.21717 7.94646 9.46704 7.94646C11.1543 7.94646 11.1557 7.94979 11.5587 7.94646C11.6693 7.94554 11.8336 7.77406 11.8699 7.70722C11.9178 7.61898 12.0268 7.30401 11.8521 7.09991C11.2591 6.40717 10.6547 5.7729 10.0755 5.14335C10.0313 5.09535 9.99795 5.03038 9.99674 4.96416C9.99542 4.89175 10.0345 4.82146 10.0755 4.7627C10.7252 3.83107 11.2618 3.04219 11.8455 2.06226C12.0353 1.74373 12.0107 1.51813 11.9759 1.44043C11.9355 1.35044 11.8111 1.22619 11.6683 1.2254C10.8889 1.22088 10.5517 1.20961 9.72017 1.21087C9.47181 1.21126 9.25185 1.19155 9.11547 1.50048C8.75002 2.32831 8.15376 3.59152 7.63605 4.11665C7.54046 4.21357 7.41279 4.28558 7.30136 4.28615C7.18993 4.28671 7.07144 4.20829 7.05479 4.02075C7.04204 3.11979 7.05264 2.35113 7.04823 1.46852C7.04688 1.19873 6.93677 1.12932 6.85322 1.06946C6.73989 0.988255 6.56081 0.963202 6.4229 0.963881Z" fill="#201F2A"/>
</svg>
