<svg width="16" height="14" viewBox="0 0 16 14" fill="none" xmlns="http://www.w3.org/2000/svg">
<path d="M15.8961 3.78474C15.8961 2.26138 14.8616 1.03593 13.5833 1.03593C11.8518 0.947915 10.086 0.914062 8.28259 0.914062C8.18883 0.914062 8.09506 0.914062 8.0013 0.914062C7.90754 0.914062 7.81377 0.914062 7.72001 0.914062C5.91976 0.914062 4.15077 0.947915 2.41928 1.03593C1.1441 1.03593 0.109585 2.26815 0.109585 3.79151C0.0314494 4.99665 -0.00293032 6.20179 0.000195114 7.40693C-0.00293032 8.61207 0.0314494 9.81721 0.10646 11.0257C0.10646 12.5491 1.14098 13.7847 2.41615 13.7847C4.23515 13.8761 6.10104 13.9167 7.99817 13.9133C9.89844 13.9201 11.7581 13.8795 13.5802 13.7847C14.8585 13.7847 15.893 12.5491 15.893 11.0257C15.968 9.81721 16.0024 8.61207 15.9993 7.40354C16.0055 6.1984 15.9712 4.99326 15.8961 3.78474ZM6.46984 10.7278V4.07587L11.0017 7.40016L6.46984 10.7278Z" fill="#201F2A"/>
</svg>
