<svg width="501" height="324" viewBox="0 0 501 324" fill="none" xmlns="http://www.w3.org/2000/svg">
<rect x="177.345" y="68.3516" width="264.091" height="264.091" transform="rotate(-15 177.345 68.3516)" fill="white"/>
<path d="M102.5 290.836C89.0395 290.836 75.7108 288.185 63.275 283.034C50.8391 277.882 39.5396 270.332 30.0216 260.814C20.5035 251.296 12.9535 239.997 7.80236 227.561C2.65125 215.125 1.019e-05 201.796 1.07784e-05 188.336C1.13667e-05 174.875 2.65126 161.547 7.80237 149.111C12.9535 136.675 20.5036 125.375 30.0216 115.857C39.5396 106.339 50.8391 98.7894 63.275 93.6383C75.7108 88.4872 89.0395 85.8359 102.5 85.8359L102.5 188.336L102.5 290.836Z" fill="#2F8ED9"/>
<rect x="204" y="105.595" width="118.554" height="46.3908" transform="rotate(90 204 105.595)" fill="#FEB251"/>
<rect x="122" y="141.677" width="118.554" height="46.3908" fill="#FEB251"/>
<rect x="312.44" y="92.0107" width="85.2108" height="33.3434" transform="rotate(90 312.44 92.0107)" fill="#FEB251"/>
<rect x="253.163" y="117.944" width="85.2108" height="33.3434" fill="#FEB251"/>
</svg>
