<svg width="263" height="461" viewBox="0 0 263 461" fill="none" xmlns="http://www.w3.org/2000/svg">
<path d="M-110.246 289.174L17.2425 256.343L49.2571 380.662L-78.2314 413.492L-110.246 289.174Z" fill="transparent"/>
<path d="M-110.246 289.174L17.2425 256.343L49.2571 380.662L-78.2314 413.492L-110.246 289.174Z" fill="#F7F8F9"/>
<path fill-rule="evenodd" clip-rule="evenodd" d="M122.384 61.0062L163.154 70.7079L153.928 109.479C151.472 89.4275 139.819 71.4206 122.384 61.0062ZM142.349 158.134L132.707 198.654L85.0529 187.315C108.098 188.252 129.789 176.93 142.349 158.134ZM56.2484 180.46L4.76039 168.208L18.6618 109.789C13.6907 139.402 29.5128 168.309 56.2484 180.46ZM21.7219 96.93L35.207 40.2612L79.8107 50.8753C53.3588 52.7623 29.8781 70.6486 21.7219 96.93Z" fill="#53B443"/>
<path d="M-52.7114 180.731C-61.552 146.401 -40.889 111.404 -6.55929 102.564L-3.38963 101.747C30.9401 92.9069 65.9366 113.57 74.7772 147.9C83.6178 182.229 62.9547 217.226 28.625 226.066L25.4554 226.883C-8.87436 235.723 -43.8708 215.06 -52.7114 180.731Z" fill="#2F8ED9"/>
</svg>
