<svg width="508" height="552" viewBox="0 0 508 552" fill="none" xmlns="http://www.w3.org/2000/svg">
<path fill-rule="evenodd" clip-rule="evenodd" d="M484.029 483.561C443.82 460.321 430.045 408.854 453.261 368.605C476.477 328.354 527.898 314.563 568.11 337.802C568.34 337.934 568.568 338.067 568.795 338.202L568.103 337.802L484.029 483.561Z" fill="#53B443"/>
<path fill-rule="evenodd" clip-rule="evenodd" d="M341.465 469.673C341.258 469.555 341.051 469.436 340.844 469.316C273.882 430.619 251.602 343.763 291.081 275.318C330.56 206.874 416.847 182.759 483.81 221.456C483.811 221.457 483.812 221.458 483.813 221.458L340.848 469.316L341.465 469.673Z" fill="#53B443"/>
<path fill-rule="evenodd" clip-rule="evenodd" d="M158.722 413.022C158.482 412.885 158.243 412.747 158.003 412.609C71.2006 362.445 42.3196 249.854 93.4959 161.13C144.672 72.4052 256.526 41.1453 343.329 91.3088C343.331 91.3096 343.332 91.3105 343.334 91.3113L158.009 412.61L158.722 413.022Z" fill="#53B443"/>
</svg>
