<svg width="405" height="468" viewBox="0 0 405 468" fill="none" xmlns="http://www.w3.org/2000/svg">
<rect x="27.5356" y="228.221" width="275.884" height="275.884" transform="rotate(-30 27.5356 228.221)" fill="white"/>
<path fill-rule="evenodd" clip-rule="evenodd" d="M32.5222 65C12.8494 78.8769 0 101.781 0 127.686C0 170.023 34.3213 204.344 76.6587 204.344C118.996 204.344 153.317 170.023 153.317 127.686C153.317 101.781 140.468 78.8775 120.796 65.0005V120.605H32.5222V65Z" fill="#5FAF52"/>
<rect x="54.75" y="192" width="43" height="118" fill="#5FAF52"/>
<rect x="46.6592" y="310" width="59" height="60" fill="#FEB251"/>
<path fill-rule="evenodd" clip-rule="evenodd" d="M183.659 234C191.112 234 198.401 233.303 205.467 231.971L221.256 207.766L249.522 213.714C261.633 205.451 272.111 194.973 280.374 182.862L274.425 154.596L298.63 138.808C299.962 131.743 300.659 124.453 300.659 117C300.659 109.547 299.962 102.257 298.63 95.1913L274.425 79.4033L280.374 51.1375C272.111 39.027 261.632 28.5484 249.522 20.2852L221.255 26.2339L205.467 2.02892C198.402 0.696876 191.112 5.36992e-05 183.659 -6.70773e-06L183.659 60.0375C215.132 60.121 240.619 85.6599 240.619 117.152C240.619 148.644 215.132 174.183 183.659 174.266L183.659 234Z" fill="#2F8ED9"/>
</svg>
