<svg width="183" height="224" viewBox="0 0 183 224" fill="none" xmlns="http://www.w3.org/2000/svg">
<rect width="184.172" height="179.593" transform="matrix(-0.320357 0.947297 0.947297 0.320357 166.453 -0.000732422)" fill="transparent"/>
<rect width="184.172" height="179.593" transform="matrix(-0.320357 0.947297 0.947297 0.320357 166.453 -0.000732422)" fill="#F1F3F5"/>
<path fill-rule="evenodd" clip-rule="evenodd" d="M0.105152 130.739C31.6453 162.937 83.8682 162.93 116.749 130.723C149.63 98.5155 150.717 46.3033 119.177 14.1038C119.142 14.069 119.108 14.0341 119.074 13.9994L119.177 14.1047L0.105152 130.739Z" fill="transparent"/>
<path fill-rule="evenodd" clip-rule="evenodd" d="M0.105152 130.739C31.6453 162.937 83.8682 162.93 116.749 130.723C149.63 98.5155 150.717 46.3033 119.177 14.1038C119.142 14.069 119.108 14.0341 119.074 13.9994L119.177 14.1047L0.105152 130.739Z" fill="#F1F3F5"/>
</svg>
