<svg width="166" height="300" viewBox="0 0 166 300" fill="none" xmlns="http://www.w3.org/2000/svg">
<path d="M-123.004 82.7338L13.1225 -33.0007L125.98 99.7413L-10.1469 215.476L-123.004 82.7338Z" fill="transparent"/>
<path d="M-123.004 82.7338L13.1225 -33.0007L125.98 99.7413L-10.1469 215.476L-123.004 82.7338Z" fill="#F1F3F5"/>
<path d="M18.8128 241.898C3.45006 209.95 16.895 171.597 48.843 156.235L51.7927 154.816C83.7407 139.453 122.094 152.898 137.456 184.846C152.819 216.794 139.374 255.147 107.426 270.51L104.476 271.928C72.5285 287.291 34.1755 273.846 18.8128 241.898Z" fill="transparent"/>
<path d="M18.8128 241.898C3.45006 209.95 16.895 171.597 48.843 156.235L51.7927 154.816C83.7407 139.453 122.094 152.898 137.456 184.846C152.819 216.794 139.374 255.147 107.426 270.51L104.476 271.928C72.5285 287.291 34.1755 273.846 18.8128 241.898Z" fill="#F1F3F5"/>
</svg>
