<svg width="417" height="420" viewBox="0 0 417 420" fill="none" xmlns="http://www.w3.org/2000/svg">
<path d="M50.1101 169.989L52.1398 162.909C52.4516 161.822 52.359 160.787 51.862 159.807C51.3649 158.826 50.6093 158.191 49.5953 157.9C48.5444 157.599 47.5603 157.726 46.6429 158.281C45.7256 158.836 45.1057 159.676 44.7833 160.8L42.7536 167.88L50.1101 169.989ZM61.3694 164.957L56.097 183.348L16.4385 171.979L24.7159 143.106L33.787 145.706L28.5938 163.821L33.6825 165.28L35.8708 157.647C37.0917 153.388 39.3168 150.324 42.5458 148.457C45.7616 146.565 49.1488 146.13 52.7071 147.15C56.2471 148.165 58.8797 150.326 60.605 153.634C62.3356 156.924 62.5904 160.698 61.3694 164.957Z" fill="#FEB251"/>
<path d="M52.069 93.6273L70.1137 98.0695L61.364 82.2002L68.9888 72.8263L83.6448 103.365C85.2171 106.72 86.0079 110.034 86.0173 113.305C86.0118 116.564 84.9561 119.488 82.8502 122.077C82.2571 122.806 81.6167 123.472 80.9288 124.074C80.253 124.662 79.7225 125.071 79.3372 125.302L78.822 125.661L71.2783 119.525C72.1932 119.008 73.0863 118.214 73.9577 117.143C74.9501 115.923 75.489 114.668 75.5744 113.377C75.6719 112.072 75.519 110.984 75.1157 110.112L74.5818 108.899L44.4441 103.001L52.069 93.6273Z" fill="#FEB251"/>
<path d="M112.94 75.8071L115.04 74.7319L115.314 73.88C115.439 73.4928 115.547 72.6726 115.638 71.4194C115.737 70.1403 115.729 68.8194 115.613 67.4566C115.488 66.0768 115.124 64.3347 114.521 62.2303C113.925 60.1001 113.073 57.9509 111.963 55.7828L106.049 44.2337L133.321 30.2686L147.561 58.0787L151.761 55.9282L160.088 72.1892L150.101 77.3032L146.337 69.9537L127.464 79.6178L131.228 86.9673L121.266 92.0681L112.94 75.8071ZM121.924 50.6819C123.034 52.8501 123.891 54.9863 124.495 57.0907C125.106 59.1693 125.462 60.9372 125.562 62.3945C125.653 63.8347 125.67 65.1298 125.612 66.2798C125.563 67.404 125.447 68.25 125.263 68.8179L125.001 69.631L137.6 63.1796L127.936 44.3066L120.586 48.0699L121.924 50.6819Z" fill="#FEB251"/>
<path d="M193.824 48.8171L214.995 47.6537L215.513 57.076L183.167 58.8535L180.903 17.6596L212.675 15.9137L213.192 25.336L192.596 26.4679L192.951 32.9313L208.837 32.0583L209.323 40.9061L193.437 41.7791L193.824 48.8171Z" fill="#FEB251"/>
<path d="M254.941 21.777L287.147 33.2213L283.785 42.6824L272.941 38.8291L262.489 68.2426L251.944 64.4952L262.396 35.0818L251.579 31.2381L254.941 21.777Z" fill="#FEB251"/>
<path d="M343.672 71.8707L350.795 80.5027L333.065 95.1333L362.038 94.1276L368.227 101.628L336.406 127.886L329.283 119.254L347.013 104.623L318.004 105.585L311.851 98.1288L343.672 71.8707Z" fill="#FEB251"/>
<path d="M399.197 182.322L359.109 192.07L356.464 181.196L371.924 177.436L368.375 162.844L352.916 166.603L350.272 155.728L390.36 145.98L393.004 156.855L378.104 160.478L381.652 175.071L396.552 171.448L399.197 182.322Z" fill="#FEB251"/>
<path d="M400.334 227.224L394.221 260.851L384.342 259.055L386.401 247.733L355.689 242.15L357.69 231.139L388.402 236.722L390.455 225.428L400.334 227.224Z" fill="#FEB251"/>
<path d="M344.623 294.625L333.071 312.405L325.158 307.264L342.807 280.099L377.403 302.575L360.068 329.258L352.155 324.117L363.393 306.819L357.964 303.292L349.297 316.634L341.866 311.806L350.534 298.465L344.623 294.625Z" fill="#FEB251"/>
<path d="M327.262 362.259L311.815 372.541C308.047 375.049 304.222 375.948 300.339 375.238C296.467 374.544 293.378 372.465 291.071 369C288.765 365.535 288.042 361.87 288.901 358.003C289.754 354.163 292.057 350.994 295.809 348.496L301.94 344.415L295.085 334.117L304.402 327.916L327.262 362.259ZM306.754 363.848L312.382 360.102L307.488 352.749L301.86 356.496C300.774 357.219 300.093 358.202 299.815 359.447C299.538 360.691 299.723 361.801 300.372 362.774C301.031 363.764 301.988 364.371 303.243 364.596C304.498 364.82 305.669 364.571 306.754 363.848Z" fill="#FEB251"/>
<path d="M239.802 368.325L218.941 372.121L217.252 362.837L249.124 357.038L256.509 397.628L225.203 403.323L223.514 394.039L243.809 390.347L242.65 383.978L226.997 386.826L225.411 378.108L241.064 375.26L239.802 368.325Z" fill="#FEB251"/>
<path d="M169.327 387.431C172.033 385.799 173.784 383.342 174.581 380.062C175.379 376.782 174.952 373.787 173.301 371.076C171.65 368.366 169.185 366.612 165.905 365.815C163.873 365.321 161.849 365.283 159.833 365.701C157.817 366.119 156.302 366.669 155.287 367.35L153.773 368.344L149.154 359.938C149.357 359.751 149.653 359.507 150.042 359.207C150.408 358.921 151.235 358.441 152.524 357.767C153.789 357.107 155.123 356.573 156.526 356.164C157.909 355.75 159.675 355.508 161.824 355.438C163.959 355.345 166.107 355.561 168.269 356.086C174.494 357.599 179.273 360.961 182.605 366.172C185.914 371.398 186.865 376.909 185.456 382.705C184.048 388.501 180.677 392.952 175.343 396.058C169.986 399.177 164.195 399.98 157.97 398.468C155.827 397.947 153.854 397.171 152.051 396.141C150.249 395.111 148.818 394.053 147.76 392.967C146.683 391.876 145.773 390.826 145.032 389.817C144.271 388.803 143.754 387.967 143.48 387.308L143.034 386.341L151.303 381.067C151.378 381.243 151.482 381.466 151.614 381.735C151.742 382.022 152.071 382.537 152.601 383.277C153.127 384.037 153.699 384.729 154.318 385.353C154.931 385.995 155.791 386.638 156.898 387.282C157.982 387.94 159.129 388.417 160.341 388.711C163.621 389.508 166.616 389.081 169.327 387.431Z" fill="#FEB251"/>
<path d="M70.8977 348.962L96.7992 316.85L105.51 323.876L95.5216 336.26L107.211 345.688L117.199 333.305L125.91 340.331L100.009 372.443L91.2979 365.417L100.925 353.481L89.2359 344.053L79.6086 355.988L70.8977 348.962Z" fill="#FEB251"/>
<path d="M45.6847 293.494C48.6261 294.572 51.6313 294.408 54.7001 293.002C57.769 291.596 59.864 289.423 60.9853 286.483C62.1066 283.543 61.9881 280.591 60.6299 277.627C59.2717 274.663 57.1171 272.654 54.1662 271.601C51.2074 270.53 48.1935 270.698 45.1246 272.105C42.0558 273.511 39.9694 275.68 38.8656 278.612C37.7363 281.534 37.8508 284.478 39.209 287.442C40.5672 290.406 42.7258 292.423 45.6847 293.494ZM29.1685 274.162C31.1953 268.318 34.9201 264.153 40.3429 261.669C45.7657 259.184 51.3608 259.078 57.1281 261.351C62.8701 263.615 67.0753 267.659 69.7438 273.482C72.4043 279.289 72.7212 285.114 70.6944 290.959C68.6422 296.794 64.9046 300.953 59.4818 303.438C54.059 305.923 48.4767 306.033 42.7347 303.77C36.9674 301.497 32.7534 297.457 30.0929 291.651C27.4244 285.827 27.1163 279.997 29.1685 274.162Z" fill="#FEB251"/>
</svg>
