<svg width="343" height="324" viewBox="0 0 343 324" fill="none" xmlns="http://www.w3.org/2000/svg">
<path fill-rule="evenodd" clip-rule="evenodd" d="M172.164 30.6168L192.212 31.6233L191.764 40.5456L161.135 39.0078L163.093 0L193.178 1.5105L192.73 10.4328L173.227 9.45355L172.919 15.574L187.962 16.3293L187.541 24.7075L172.499 23.9522L172.164 30.6168ZM119.662 5.33166L103.036 11.0059L115.652 47.9693L125.679 44.5472L121.896 33.4633L128.495 31.2112C132.533 29.833 135.407 27.4898 137.118 24.1817C138.84 20.8504 139.064 17.3203 137.791 13.5913C136.519 9.86234 134.194 7.21175 130.818 5.63957C127.436 4.05021 123.718 3.94757 119.662 5.33166ZM116.134 16.5797L122.191 14.5124C123.36 14.1136 124.491 14.1687 125.586 14.6776C126.68 15.1866 127.41 15.9738 127.773 17.0392C128.131 18.0875 128.032 19.1476 127.477 20.2196C126.922 21.2916 126.06 22.027 124.892 22.4258L118.834 24.4931L116.134 16.5797ZM79.1526 59.4499L94.3875 46.3797L100.204 53.16L76.9282 73.1288L51.4972 43.4858L74.36 23.8717L80.1768 30.652L65.3553 43.3675L69.3455 48.0186L80.7769 38.2115L86.2391 44.5783L74.8077 54.3854L79.1526 59.4499ZM32.0547 62.6673L16.3215 90.9414L24.6276 95.5634L29.9117 86.0673L55.7344 100.436L60.8862 91.1784L35.0635 76.8092L40.3609 67.2893L32.0547 62.6673ZM4.61001 116.405L43.3885 121.06L42.1257 131.579L27.1714 129.784L25.4768 143.9L40.4311 145.695L39.1683 156.215L0.389828 151.56L1.65264 141.04L16.0661 142.77L17.7607 128.654L3.3472 126.924L4.61001 116.405ZM8.00404 210.738L11.2746 220.816L48.424 208.759L45.5991 200.055L19.721 190.814L40.42 184.097L37.1495 174.019L0 186.076L2.84177 194.832L28.7031 204.021L8.00404 210.738ZM267.12 240.653L270.841 234.757L276.968 238.624L273.246 244.52C272.655 245.457 271.869 246.056 270.888 246.317C269.908 246.578 268.98 246.433 268.104 245.88C267.26 245.347 266.742 244.569 266.55 243.546C266.358 242.524 266.548 241.559 267.12 240.653ZM268.941 221.029L259.274 236.346C257.036 239.893 256.267 243.391 256.967 246.839C257.659 250.303 259.478 252.965 262.427 254.826C265.39 256.696 268.584 257.198 272.008 256.331C275.438 255.49 278.272 253.296 280.51 249.749L284.522 243.392L288.76 246.066L279.239 261.153L286.794 265.921L301.97 241.875L268.941 221.029ZM241.279 283.731L256.776 292.059L265.978 285.263L239.736 272.749L239.533 271.511C239.369 270.616 239.485 269.582 239.882 268.408C240.265 267.245 241.055 266.222 242.253 265.337C243.304 264.56 244.31 264.043 245.271 263.785L239.801 256.38L239.244 256.588C238.837 256.709 238.254 256.959 237.496 257.338C236.723 257.728 235.979 258.188 235.263 258.716C232.722 260.594 231.064 263.026 230.291 266.012C229.528 269.014 229.472 272.238 230.122 275.686L236.358 307.141L245.56 300.344L241.279 283.731ZM207.072 286.088L204.908 286.64L204.475 287.368C204.278 287.699 204.006 288.434 203.659 289.572C203.299 290.732 203.029 291.953 202.85 293.235C202.675 294.535 202.645 296.219 202.76 298.289C202.862 300.38 203.198 302.543 203.767 304.778L206.799 316.681L178.69 323.842L171.388 295.179L167.06 296.282L162.79 279.522L173.083 276.9L175.013 284.475L194.465 279.519L192.535 271.944L202.802 269.329L207.072 286.088ZM193.5 307.393C192.931 305.159 192.588 303.007 192.473 300.938C192.345 298.89 192.388 297.184 192.603 295.817C192.821 294.469 193.078 293.27 193.373 292.22C193.654 291.193 193.939 290.436 194.228 289.951L194.641 289.255L181.655 292.563L186.611 312.015L194.186 310.086L193.5 307.393ZM118.977 288.153L138.858 290.927L137.935 297.536L123.018 295.454L121.858 303.762L136.776 305.844L135.928 311.914L116.587 309.214L115.353 318.062L145.187 322.226L150.586 283.544L120.212 279.305L118.977 288.153ZM91.9758 307.378L63.5863 291.854L68.1468 283.514L77.7056 288.741L91.8837 262.813L101.18 267.896L87.0014 293.824L96.5363 299.038L91.9758 307.378ZM222.187 33.1353C223.552 30.2455 225.644 28.3018 228.464 27.3042C231.292 26.2901 234.151 26.4654 237.041 27.8298C238.108 28.3337 239.082 28.9941 239.961 29.8109C240.865 30.619 241.54 31.3795 241.986 32.0923C242.441 32.7887 242.839 33.5392 243.182 34.3437C243.533 35.1318 243.74 35.6713 243.804 35.9623C243.875 36.2369 243.929 36.4631 243.965 36.6409L252.638 33.3266L252.409 32.3449C252.28 31.6818 251.96 30.8077 251.448 29.7227C250.953 28.6455 250.31 27.4984 249.519 26.2817C248.744 25.0726 247.62 23.8187 246.145 22.5199C244.67 21.221 242.988 20.1258 241.1 19.2343C235.616 16.6449 230.092 16.2861 224.53 18.1577C218.992 20.0206 215.017 23.5053 212.606 28.6117C210.195 33.7181 210.026 39.0096 212.099 44.4861C214.196 49.9539 217.986 53.9825 223.47 56.5719C225.375 57.4712 227.326 58.0811 229.323 58.4016C231.329 58.7463 233.013 58.8586 234.375 58.7386C235.753 58.6263 237.092 58.385 238.391 58.0146C239.715 57.6355 240.573 57.3481 240.967 57.1525C241.385 56.9481 241.706 56.7784 241.93 56.6434L239.249 47.9682L237.655 48.6011C236.585 49.0395 235.075 49.2603 233.126 49.2636C231.176 49.2669 229.307 48.846 227.517 48.001C224.627 46.6365 222.676 44.5403 221.662 41.7121C220.647 38.884 220.823 36.0251 222.187 33.1353ZM300.763 75.518L271.212 101.057L264.285 93.0405L275.68 83.1919L266.384 72.4351L254.988 82.2837L248.06 74.2677L277.611 48.729L284.538 56.7451L273.555 66.2375L282.851 76.9943L293.835 67.5019L300.763 75.518ZM298.005 121.703C301.086 120.856 303.919 121.159 306.504 122.614C309.106 124.064 310.816 126.277 311.635 129.253C312.454 132.229 312.113 134.997 310.614 137.556C309.137 140.128 306.858 141.838 303.777 142.686C300.695 143.533 297.854 143.232 295.251 141.782C292.654 140.35 290.946 138.145 290.127 135.169C289.309 132.193 289.647 129.416 291.141 126.84C292.636 124.263 294.924 122.551 298.005 121.703ZM306.659 153.164C312.104 151.666 316.217 148.341 318.999 143.188C321.803 138.047 322.401 132.553 320.793 126.706C319.189 120.876 315.866 116.461 310.822 113.46C305.801 110.472 300.567 109.727 295.123 111.225C289.678 112.723 285.553 116.042 282.749 121.182C279.967 126.335 279.378 131.827 280.981 137.657C282.59 143.504 285.905 147.922 290.926 150.91C295.97 153.91 301.214 154.661 306.659 153.164Z" fill="#FEB251"/>
</svg>
