<svg width="586" height="530" viewBox="0 0 586 530" fill="none" xmlns="http://www.w3.org/2000/svg">
<path d="M186.863 96.37L524.891 96.3701L524.891 434.398L186.863 434.398L186.863 96.37Z" fill="#201F2A"/>
<path d="M186.863 96.37L524.891 96.3701L524.891 434.398L186.863 434.398L186.863 96.37Z" fill="white"/>
<path fill-rule="evenodd" clip-rule="evenodd" d="M0.0106754 239.789C0.00356535 240.368 0 240.947 0 241.528C0 318.111 62.0834 380.195 138.667 380.195C215.251 380.195 277.334 318.111 277.334 241.528C277.334 240.947 277.331 240.368 277.323 239.789H0.0106754Z" fill="#2F8ED9"/>
<path fill-rule="evenodd" clip-rule="evenodd" d="M239.043 377.138L239.043 278.081L335.643 278.081C335.643 278.219 335.644 278.357 335.644 278.494C335.644 332.296 292.581 376.039 239.043 377.138Z" fill="#53B443"/>
<path fill-rule="evenodd" clip-rule="evenodd" d="M58.274 126.981L70.4756 114.645C70.1792 114.368 69.8859 114.086 69.5958 113.799C53.5426 97.9213 53.4007 72.0359 69.2788 55.9827C69.4164 55.8436 69.5547 55.7057 69.6938 55.569L57.3616 43.3713C57.2227 43.509 57.0844 43.6475 56.9465 43.7868C34.3323 66.6504 34.5344 103.518 57.3979 126.132C57.6877 126.418 57.9798 126.701 58.274 126.981Z" fill="#FEB251"/>
<path fill-rule="evenodd" clip-rule="evenodd" d="M116.353 184.98L104.152 172.645C104.448 172.369 104.741 172.088 105.031 171.801C121.084 155.923 121.226 130.037 105.348 113.984C105.209 113.845 105.071 113.706 104.931 113.569L117.264 101.371C117.403 101.509 117.542 101.647 117.68 101.787C140.294 124.651 140.092 161.518 117.228 184.132C116.939 184.418 116.647 184.701 116.353 184.98Z" fill="#FEB251"/>
</svg>
