<svg width="300" height="299" viewBox="0 0 300 299" fill="none" xmlns="http://www.w3.org/2000/svg">
<path fill-rule="evenodd" clip-rule="evenodd" d="M103.138 9.28838L134.133 0L136.862 9.1056L126.426 12.233L134.909 40.5412L124.76 43.5826L116.277 15.2744L105.866 18.394L103.138 9.28838ZM22.761 115.566L38.878 108.836L28.6916 94.6272L50.9667 100.936L53.8541 90.7423L16.2748 80.0983L13.6917 89.218L25.1985 104.961L7.15242 112.305L4.56937 121.425L42.1487 132.069L45.0361 121.875L22.761 115.566ZM33.5993 170.937L29.3128 151.326L38.0404 149.418L44.5894 179.38L6.43265 187.72L0 158.291L8.72762 156.383L12.8978 175.462L18.8847 174.153L15.6684 159.438L23.8639 157.647L27.0802 172.362L33.5993 170.937ZM281.531 186.716L265.44 193.507L275.68 207.676L253.381 201.452L250.532 211.657L288.152 222.158L290.7 213.029L279.134 197.329L297.152 189.917L299.7 180.787L262.081 170.286L259.232 180.491L281.531 186.716ZM202.496 255.679L228.884 284.475L236.695 277.317L210.307 248.521L202.496 255.679ZM236.412 224.599L223.882 236.082C220.722 238.977 219.023 242.283 218.784 245.999C218.543 249.742 219.754 253.065 222.416 255.97C225.078 258.875 228.278 260.364 232.015 260.437C235.75 260.536 239.198 259.138 242.357 256.243L247.076 251.918L254.988 260.553L262.8 253.395L236.412 224.599ZM230.687 242.702L235.004 238.746L240.654 244.91L236.336 248.867C235.426 249.701 234.367 250.104 233.161 250.077C231.954 250.05 230.97 249.622 230.209 248.792C229.461 247.975 229.126 246.965 229.204 245.76C229.283 244.555 229.777 243.536 230.687 242.702ZM107.761 253.217L103.584 264.1L105.08 268.03L119.483 257.716L130.926 262.108L108.691 278.08L115.914 298.182L104.445 293.78L98.5672 277.17L93.7655 289.681L83.8739 285.885L88.6756 273.374L73.1941 281.786L61.7513 277.394L80.5678 267.286L74.7039 240.53L86.1467 244.921L89.976 262.233L93.692 260.304L97.8691 249.421L107.761 253.217ZM63.1174 233.017L64.5026 234.769L78.0697 224.042L71.4984 215.731L65.3665 220.579L52.9165 204.833L59.0484 199.985L52.4602 191.652L38.8932 202.379L41.6636 205.883L18.4608 224.229L36.4516 246.983L46.0874 239.364C47.8963 237.934 49.7351 236.746 51.6036 235.801C53.4467 234.853 54.9974 234.194 56.2558 233.824C57.4999 233.466 58.725 233.215 59.9311 233.071C61.1116 232.925 61.8932 232.874 62.2758 232.919L63.1174 233.017ZM44.9941 227.486C43.151 228.434 41.325 229.623 39.5161 231.053L37.3368 232.776L32.4886 226.644L48.2349 214.194L56.5462 224.706L55.7427 224.612C55.1816 224.546 54.3745 224.594 53.3215 224.756C52.243 224.914 51.0434 225.168 49.7227 225.518C48.3878 225.879 46.8116 226.535 44.9941 227.486ZM194.033 35.9428L174.142 33.2444L175.039 26.6319L189.964 28.6567L191.092 20.3439L176.167 18.3191L176.99 12.2464L196.342 14.8717L197.543 6.01911L167.692 1.96954L162.442 40.6726L192.832 44.7954L194.033 35.9428ZM222.031 53.7041L227.872 57.5117C228.769 58.0967 229.731 58.3008 230.757 58.124C231.782 57.9472 232.568 57.4405 233.113 56.6038C233.678 55.7368 233.837 54.811 233.59 53.8264C233.344 52.8418 232.756 52.0471 231.828 51.4422L225.987 47.6347L222.031 53.7041ZM223.45 65.2932L208.276 55.4026L229.605 22.6824L253.426 38.2101L248.547 45.6942L233.602 35.9522L230.865 40.1506L237.163 44.2556C240.677 46.5461 242.829 49.4122 243.62 52.8539C244.437 56.2904 243.888 59.4765 241.974 62.4123C240.07 65.333 237.382 67.1134 233.908 67.7537C230.45 68.4039 226.964 67.5837 223.45 65.2932ZM260.436 116.053L293.918 95.9407L284.436 80.1575C282.314 76.6241 279.456 74.3695 275.861 73.3935C272.292 72.4238 268.881 72.9161 265.628 74.8703C264.289 75.6744 263.15 76.6342 262.21 77.7495C261.295 78.871 260.645 79.8865 260.259 80.796C259.898 81.7118 259.626 82.6695 259.443 83.6692C259.276 84.6595 259.189 85.326 259.183 85.6685C259.202 86.0173 259.227 86.2882 259.258 86.4813L242.905 86.8682L248.655 96.4409L262.635 95.859L265.511 100.645L254.981 106.971L260.436 116.053ZM271.084 83.9527C272.049 83.373 273.039 83.223 274.054 83.5027C275.095 83.7887 275.933 84.4609 276.568 85.5193L280.313 91.7532L273.636 95.7645L269.891 89.5306C269.264 88.4877 269.069 87.4399 269.305 86.3873C269.541 85.3346 270.134 84.5231 271.084 83.9527Z" fill="#FEB251"/>
</svg>
