<svg width="270" height="301" viewBox="0 0 270 301" fill="none" xmlns="http://www.w3.org/2000/svg">
<path fill-rule="evenodd" clip-rule="evenodd" d="M134.556 17.5156C135.646 20.5967 135.658 23.4335 134.592 26.026C133.543 28.6125 131.786 30.3419 129.321 31.2144C126.873 32.0808 124.428 31.8387 121.985 30.4882C119.542 29.1376 117.776 26.9218 116.685 23.8407C115.595 20.7596 115.577 17.9343 116.632 15.365C117.681 12.7785 119.43 11.0521 121.878 10.1857C124.343 9.3133 126.796 9.55235 129.239 10.9029C131.693 12.2302 133.465 14.4344 134.556 17.5156ZM104.233 32.9862L108.701 31.405C111.193 35.4538 114.612 38.3369 118.957 40.0544C123.301 41.7719 127.819 41.8006 132.509 40.1405C137.798 38.2684 141.614 34.8183 143.956 29.7902C146.299 24.7621 146.497 19.5007 144.553 14.0061C142.602 8.49429 139.134 4.52088 134.151 2.08583C129.161 -0.366334 124.021 -0.65637 118.732 1.21572C114.059 2.86971 110.565 5.70512 108.25 9.72195C105.952 13.7327 105.048 17.982 105.538 22.4697L101.071 24.051L96.227 10.3657L86.2391 13.9009L99.271 50.7202L109.259 47.1851L104.233 32.9862ZM51.1416 35.2479L81.6911 59.5836L75.0726 67.892L51.9581 49.479L46.4088 56.4453L48.5817 58.1763C51.9619 60.869 54.7761 63.4125 57.0241 65.8069C59.2835 68.1871 60.9866 70.3331 62.1334 72.2449C63.266 74.1454 63.9575 75.973 64.2079 77.7278C64.4582 79.4827 64.3636 81.044 63.9241 82.4117C63.5101 83.7766 62.7713 85.1266 61.7078 86.4616C61.1308 87.1859 60.4701 87.8551 59.7255 88.4692C59.0065 89.0804 58.4289 89.5141 57.9927 89.7702L57.3554 90.1331L49.7287 84.0576C50.5897 83.5596 51.2522 83.0194 51.7161 82.4371C52.3383 81.656 52.6925 80.847 52.7787 80.0103C52.8507 79.1622 52.6103 78.1234 52.0576 76.8938C51.4907 75.6529 50.3732 74.1707 48.705 72.4472C47.0481 70.7095 44.8207 68.7262 42.0228 66.4974L32.3722 58.8098L51.1416 35.2479ZM9.2356 197.611L12.7708 207.599L49.5901 194.567L46.5366 185.94L20.4234 177.384L40.9385 170.123L37.4034 160.135L0.583984 173.167L3.65567 181.846L29.7507 190.349L9.2356 197.611ZM30.073 243.61L55.6375 214.081L94.4328 247.668L68.8684 277.197L60.8581 270.262L80.2186 247.899L72.8467 241.517L53.4862 263.88L45.4759 256.945L64.8364 234.582L57.4438 228.182L38.0833 250.545L30.073 243.61ZM246.735 224.653L250.676 230.247L246.095 235.137L250.036 240.731L254.43 236.04L258.332 241.635L253.957 246.307L259.554 254.236L253.838 260.339L248.241 252.41L243.846 257.101L249.462 265.011L243.727 271.133L238.13 263.204L233.55 268.094L229.629 262.519L234.209 257.628L230.269 252.034L225.893 256.706L221.953 251.112L226.347 246.42L220.751 238.529L226.467 232.426L232.063 240.317L236.439 235.646L230.861 227.735L236.578 221.632L242.173 229.523L246.735 224.653ZM244.32 246.834L240.379 241.24L236.004 245.912L239.926 251.526L244.32 246.834ZM175.583 300.712L162.551 263.893L172.539 260.358L177.565 274.556L190.968 269.813L185.942 255.614L195.93 252.079L208.962 288.898L198.974 292.433L194.13 278.748L180.728 283.492L185.571 297.177L175.583 300.712ZM121.49 286.209L120.952 274.222L127.95 276.097L121.49 286.209ZM132.824 268.746L120.433 265.426L119.887 256.623L108.837 253.662L113.014 295.217L124.327 298.248L148.721 264.349L137.672 261.389L132.824 268.746ZM165.079 29.6757L167.265 30.136L167.975 29.6731C168.297 29.4627 168.865 28.9237 169.679 28.0559C170.514 27.1741 171.295 26.1973 172.022 25.1257C172.752 24.0362 173.523 22.5377 174.333 20.6299C175.164 18.7082 175.818 16.6191 176.293 14.3625L178.824 2.34237L207.209 8.32021L201.113 37.2645L205.484 38.185L201.92 55.1092L191.525 52.9201L193.136 45.2709L173.494 41.1342L171.883 48.7833L161.515 46.5999L165.079 29.6757ZM186.66 16.546C186.185 18.8025 185.543 20.8847 184.733 22.7924C183.944 24.686 183.152 26.1986 182.357 27.3301C181.566 28.4439 180.807 29.4066 180.079 30.2183C179.373 31.0159 178.783 31.5691 178.31 31.8776L177.633 32.3195L190.745 35.081L194.882 15.4384L187.233 13.8274L186.66 16.546ZM249.955 36.6285L241.839 29.8179L216.733 59.7372L223.743 65.6199L250.584 59.7342L236.596 76.4048L244.712 83.2154L269.818 53.296L262.766 47.3783L235.966 53.299L249.955 36.6285Z" fill="#FEB251"/>
</svg>
