<svg width="331" height="335" viewBox="0 0 331 335" fill="none" xmlns="http://www.w3.org/2000/svg">
<path d="M57.5763 149.069L52.0684 146.408L53.525 140.598L48.0171 137.937L46.6197 143.511L41.1414 140.832L42.5329 135.282L34.7168 131.515L36.5346 124.265L44.3507 128.032L45.7481 122.458L37.9261 118.715L39.7498 111.44L47.5659 115.207L49.0225 109.398L54.5068 112.053L53.0502 117.863L58.558 120.524L59.9495 114.974L65.4574 117.635L64.06 123.208L71.8584 126.946L70.0406 134.196L62.2422 130.459L60.8507 136.009L68.6432 139.77L66.8254 147.021L59.027 143.283L57.5763 149.069ZM49.8349 130.687L55.3428 133.348L56.7343 127.798L51.2324 125.113L49.8349 130.687Z" fill="#FEB251"/>
<path d="M85.4134 55.5413L110.809 79.5022L104.31 86.3914L94.516 77.1512L85.7938 86.3958L95.5874 95.6359L89.0875 102.525L63.6915 78.5642L70.1913 71.675L79.6307 80.581L88.3529 71.3364L78.9135 62.4304L85.4134 55.5413Z" fill="#FEB251"/>
<path d="M143.175 54.1123L136.971 45.3617L137.007 56.0883L143.175 54.1123ZM147.821 60.4731L136.9 63.972L136.815 71.8482L127.077 74.9683L129.015 37.6839L138.985 34.4896L162.229 63.7065L152.49 66.8265L147.821 60.4731Z" fill="#FEB251"/>
<path d="M240.104 48.949L230.335 82.4699L186.295 69.6349L196.064 36.114L205.157 38.7641L197.759 64.1502L206.127 66.5891L213.526 41.2031L222.619 43.8532L215.221 69.2393L223.613 71.685L231.011 46.2989L240.104 48.949Z" fill="#FEB251"/>
<path d="M269.133 80.9181L275.008 88.3478L259.747 100.414L284.28 100.075L289.384 106.531L261.995 128.186L256.121 120.756L271.381 108.69L246.819 108.991L241.745 102.573L269.133 80.9181Z" fill="#FEB251"/>
<path d="M300.149 199.868L265.255 198.656L265.585 189.166L291.987 190.083L292.263 182.126L289.781 182.04C285.92 181.906 282.545 181.577 279.656 181.054C276.766 180.548 274.401 179.914 272.56 179.151C270.735 178.389 269.265 177.445 268.151 176.318C267.037 175.191 266.274 174.02 265.861 172.803C265.432 171.603 265.244 170.24 265.297 168.715C265.325 167.888 265.444 167.055 265.651 166.218C265.842 165.396 266.026 164.777 266.203 164.361L266.468 163.761L275.179 164.064C274.826 164.88 274.638 165.621 274.615 166.286C274.584 167.178 274.76 167.948 275.143 168.594C275.543 169.242 276.269 169.86 277.32 170.449C278.388 171.038 279.98 171.507 282.095 171.857C284.21 172.223 286.866 172.461 290.062 172.572L301.085 172.955L300.149 199.868Z" fill="#FEB251"/>
<path d="M236.938 258.26C237.419 260.719 238.825 262.829 241.156 264.591C243.487 266.353 245.895 267.124 248.379 266.906C250.867 266.711 252.815 265.68 254.224 263.816C255.624 261.964 256.078 259.815 255.587 257.368C255.109 254.932 253.704 252.833 251.373 251.071C249.042 249.309 246.633 248.526 244.146 248.722C241.658 248.917 239.715 249.941 238.315 251.793C236.906 253.658 236.447 255.813 236.938 258.26ZM253.605 241.496L256.159 238.116L245.417 229.998L251.127 222.441L278.983 243.492L273.273 251.049L262.919 243.224L260.365 246.604C262.941 249.711 264.359 253.326 264.62 257.45C264.871 261.587 263.661 265.423 260.989 268.958C257.965 272.96 253.988 275.275 249.058 275.903C244.14 276.541 239.596 275.284 235.426 272.133C231.269 268.991 228.827 264.968 228.098 260.063C227.369 255.159 228.516 250.705 231.541 246.704C234.222 243.155 237.606 240.952 241.694 240.094C245.781 239.235 249.751 239.703 253.605 241.496Z" fill="#FEB251"/>
<path d="M207.445 269.902L205.548 270.525L205.207 271.201C205.051 271.508 204.854 272.18 204.613 273.216C204.362 274.272 204.196 275.378 204.114 276.532C204.038 277.703 204.113 279.207 204.342 281.045C204.56 282.905 204.991 284.813 205.635 286.772L209.064 297.204L184.43 305.301L176.172 280.181L172.379 281.428L167.551 266.74L176.572 263.775L178.754 270.413L195.801 264.81L193.619 258.171L202.617 255.214L207.445 269.902ZM196.637 289.729C195.993 287.771 195.557 285.872 195.329 284.034C195.09 282.216 195.024 280.691 195.132 279.459C195.245 278.243 195.401 277.158 195.6 276.204C195.788 275.271 195.997 274.579 196.224 274.128L196.551 273.483L185.17 277.224L190.774 294.271L197.412 292.089L196.637 289.729Z" fill="#FEB251"/>
<path d="M143.127 302.649L133.845 300.768L137.708 281.701L119.193 297.799L111.127 296.165L118.061 261.945L127.344 263.826L123.48 282.893L142.044 266.805L150.062 268.429L143.127 302.649Z" fill="#FEB251"/>
</svg>
