<svg width="337" height="425" viewBox="0 0 337 425" fill="none" xmlns="http://www.w3.org/2000/svg">
<path fill-rule="evenodd" clip-rule="evenodd" d="M226.357 174.892C210.051 114.037 147.5 77.9233 86.645 94.2293C25.7901 110.535 -10.3238 173.087 5.98216 233.941C22.2882 294.796 84.8394 330.91 145.694 314.604C206.549 298.298 242.663 235.747 226.357 174.892Z" fill="white"/>
<path d="M173.343 155.934C180.146 144.151 176.109 129.084 164.326 122.28C152.542 115.477 137.475 119.514 130.672 131.298C123.868 143.081 127.906 158.149 139.689 164.952C151.473 171.755 166.54 167.718 173.343 155.934Z" fill="#2F8ED9"/>
<path d="M103.34 277.184C110.143 265.401 106.106 250.334 94.3227 243.53C82.5392 236.727 67.4718 240.764 60.6686 252.548C53.8654 264.331 57.9027 279.399 69.6862 286.202C81.4696 293.005 96.5371 288.968 103.34 277.184Z" fill="#2F8ED9"/>
<path d="M140.058 213.587C146.861 201.803 142.824 186.736 131.04 179.933C119.257 173.13 104.189 177.167 97.3861 188.95C90.5829 200.734 94.6203 215.801 106.404 222.604C118.187 229.408 133.255 225.37 140.058 213.587Z" fill="#FB5235"/>
<path d="M254.913 243.531L254.961 243.518L254.493 241.773C254.62 242.361 254.756 242.946 254.913 243.531Z" fill="#398BCB"/>
<path d="M210.91 62.8765C208.832 55.1225 200.862 50.5209 193.108 52.5986C185.354 54.6763 180.752 62.6465 182.83 70.4005C184.907 78.1545 192.878 82.7561 200.632 80.6784C208.386 78.6008 212.987 70.6306 210.91 62.8765Z" fill="#2F8ED9"/>
<path d="M49.689 342.119C47.6113 334.365 39.6411 329.763 31.887 331.841C24.133 333.918 19.5314 341.889 21.6091 349.643C23.6868 357.397 31.657 361.998 39.411 359.921C47.1651 357.843 51.7667 349.873 49.689 342.119Z" fill="#2F8ED9"/>
<path fill-rule="evenodd" clip-rule="evenodd" d="M200.119 281.675L308.657 346.42L328.859 311.428L221.78 247.554C216.647 260.094 209.312 271.667 200.119 281.675Z" fill="#5FAF52"/>
</svg>
