<svg width="326" height="334" viewBox="0 0 326 334" fill="none" xmlns="http://www.w3.org/2000/svg">
<path d="M62.8806 115.13L58.8793 110.503L62.52 105.747L58.5186 101.12L55.0259 105.683L51.0587 101.051L54.5366 96.508L48.8546 89.9508L53.3982 84.0153L59.0801 90.5724L62.5729 86.0096L56.8761 79.4718L61.4345 73.5169L67.1164 80.0741L70.7572 75.3179L74.7392 79.9299L71.0985 84.6861L75.0999 89.3128L78.5778 84.7694L82.5792 89.3961L79.0864 93.959L84.7639 100.482L80.2203 106.418L74.5429 99.8945L71.0649 104.438L76.7276 110.98L72.184 116.916L66.5066 110.393L62.8806 115.13ZM63.0622 95.1844L67.0636 99.8112L70.5415 95.2677L66.5549 90.6216L63.0622 95.1844Z" fill="#FEB251"/>
<path d="M114.436 65.5673L112.75 79.1004L103.164 83.312L106.337 62.0249L90.0331 50.9446L99.6184 46.733L109.216 53.686L110.586 41.9141L120.171 37.7025L117.305 57.206L135.13 69.2668L125.545 73.4784L114.436 65.5673Z" fill="#FEB251"/>
<path d="M165.822 43.9518C163.758 45.616 162.567 47.8677 162.25 50.7069C161.933 53.5461 162.597 56.013 164.242 58.1076C165.886 60.2021 168.079 61.4025 170.822 61.7087C173.564 62.0149 175.96 61.3269 178.01 59.6448C180.076 57.9645 181.267 55.7047 181.584 52.8655C181.901 50.0262 181.237 47.5674 179.591 45.489C177.962 43.3962 175.777 42.1968 173.034 41.8906C170.292 41.5844 167.888 42.2715 165.822 43.9518ZM187.044 40.3922C190.401 44.4093 191.8 48.9264 191.239 53.9434C190.679 58.9604 188.318 63.0659 184.156 66.2598C180.012 69.4394 175.246 70.7284 169.857 70.1268C164.486 69.5271 160.121 67.2187 156.764 63.2016C153.425 59.1702 152.035 54.646 152.595 49.629C153.156 44.6119 155.508 40.5136 159.652 37.334C163.814 34.1401 168.581 32.8431 173.953 33.4428C179.341 34.0444 183.705 36.3608 187.044 40.3922Z" fill="#FEB251"/>
<path d="M233.828 57.2972L227.372 65.8773C226.357 67.2263 225.934 68.5843 226.104 69.9513C226.297 71.3151 227.048 72.4898 228.358 73.4755C229.15 74.0708 230.004 74.5413 230.923 74.8868C231.863 75.2291 232.59 75.4104 233.103 75.4307L233.907 75.4563L242.602 63.8993L250.171 69.5939L229.178 97.4939L221.61 91.7994L228.651 82.441C226.331 81.9342 224.042 80.8318 221.785 79.1337C218.569 76.7134 216.76 73.8391 216.359 70.5109C215.981 67.1795 217.129 63.7368 219.803 60.1828L226.259 51.6027L233.828 57.2972Z" fill="#FEB251"/>
<path d="M276.065 105.64L266.006 117.729L281.322 116.944L285.634 126.216L256.967 126.068C253.832 126.023 251.017 125.398 248.524 124.195C246.045 122.984 244.211 121.098 243.02 118.537C242.684 117.816 242.415 117.082 242.211 116.336C242.014 115.604 241.899 115.049 241.866 114.67L241.783 114.145L249.245 110.675C249.3 111.562 249.573 112.536 250.066 113.596C250.627 114.802 251.383 115.677 252.334 116.22C253.291 116.777 254.176 117.064 254.989 117.079L256.11 117.122L271.753 96.3672L276.065 105.64Z" fill="#FEB251"/>
<path d="M253.324 188.266L256.403 171.849L290.72 178.284L287.826 193.719C287.165 197.245 285.731 199.916 283.524 201.732C281.317 203.548 278.994 204.227 276.553 203.769C275.611 203.592 274.738 203.272 273.934 202.807C273.145 202.346 272.536 201.851 272.106 201.325C271.676 200.798 271.31 200.284 271.008 199.781C270.719 199.298 270.524 198.881 270.425 198.532L270.271 198.033C270.177 198.18 270.041 198.378 269.862 198.625C269.697 198.891 269.325 199.334 268.747 199.952C268.184 200.573 267.573 201.103 266.913 201.54C266.253 201.978 265.396 202.321 264.342 202.569C263.285 202.834 262.182 202.858 261.033 202.643C258.353 202.14 256.228 200.528 254.657 197.805C253.084 195.099 252.639 191.919 253.324 188.266ZM262.004 182.536L260.81 188.902C260.607 189.986 260.768 190.933 261.294 191.742C261.819 192.551 262.568 193.046 263.542 193.229C264.531 193.414 265.417 193.225 266.199 192.662C266.982 192.098 267.475 191.274 267.679 190.189L268.872 183.824L262.004 182.536ZM280.639 191.356L281.604 186.211L275.741 185.112L274.776 190.257C274.593 191.23 274.711 192.053 275.13 192.726C275.565 193.402 276.221 193.823 277.099 193.987C277.992 194.155 278.756 194.001 279.39 193.525C280.04 193.052 280.456 192.329 280.639 191.356Z" fill="#FEB251"/>
<path d="M234.549 276.074L211.151 250.159L218.181 243.812L235.885 263.42L244.957 255.229L227.253 235.621L234.283 229.273L257.682 255.189L234.549 276.074Z" fill="#FEB251"/>
<path d="M199.035 293.597L189.753 295.484L185.878 276.42L175.103 298.462L167.038 300.101L160.083 265.886L169.365 263.999L173.24 283.063L184.063 261.011L192.08 259.381L199.035 293.597Z" fill="#FEB251"/>
<path d="M132.07 297.467L104.387 289.078L106.852 280.945L116.172 283.77L123.834 258.487L132.899 261.234L125.237 286.517L134.534 289.334L132.07 297.467Z" fill="#FEB251"/>
<path d="M86.5638 244.929L73.5403 232.584L79.0344 226.788L98.9319 245.649L74.912 270.989L55.3679 252.463L60.862 246.667L73.5321 258.677L77.3009 254.701L67.5288 245.438L72.6879 239.996L82.46 249.258L86.5638 244.929Z" fill="#FEB251"/>
<path d="M36.0153 221.147L30.9208 206.292C29.6781 202.668 29.765 199.344 31.1813 196.318C32.5823 193.298 34.9488 191.217 38.2807 190.074C41.6126 188.931 44.7687 189.128 47.7489 190.662C50.7085 192.187 52.8071 194.754 54.0445 198.362L56.0665 204.258L65.97 200.862L69.0425 209.821L36.0153 221.147ZM39.1247 204.019L40.9808 209.431L48.0515 207.007L46.1954 201.594C45.8373 200.55 45.1787 199.781 44.2197 199.286C43.2606 198.791 42.3128 198.704 41.3762 199.025C40.4242 199.352 39.7215 200.005 39.2679 200.984C38.8144 201.963 38.7666 202.975 39.1247 204.019Z" fill="#FEB251"/>
</svg>
