<svg width="467" height="457" viewBox="0 0 467 457" fill="currentColor" xmlns="http://www.w3.org/2000/svg">
<path d="M67.3217 172.003L76.8148 153.285C79.1305 148.719 82.3977 145.706 86.6164 144.246C90.8158 142.776 95.0147 143.106 99.2129 145.235C103.411 147.364 106.163 150.571 107.467 154.857C108.762 159.114 108.257 163.515 105.951 168.062L102.183 175.491L114.662 181.82L108.936 193.109L67.3217 172.003ZM86.6337 159.031L83.175 165.851L92.0841 170.369L95.5429 163.549C96.2101 162.234 96.3342 160.886 95.9152 159.506C95.4963 158.126 94.6967 157.137 93.5166 156.538C92.3171 155.93 91.0369 155.864 89.6759 156.342C88.315 156.819 87.301 157.715 86.6337 159.031Z"/>
<path d="M146.93 129.658L165.52 114.509L172.262 122.782L143.86 145.927L114.384 109.756L142.282 87.0217L149.024 95.2952L130.938 110.033L135.563 115.709L149.512 104.342L155.843 112.111L141.894 123.478L146.93 129.658Z"/>
<path d="M221.589 61.9549L233.285 107.126L221 110.307L212.15 76.1293L201.85 78.7964L202.682 82.0095C203.976 87.0075 204.837 91.4567 205.264 95.357C205.712 99.252 205.798 102.524 205.52 105.173C205.237 107.801 204.585 110.042 203.564 111.897C202.543 113.753 201.331 115.176 199.93 116.166C198.554 117.172 196.88 117.93 194.906 118.442C193.835 118.719 192.723 118.883 191.572 118.935C190.446 119.002 189.583 119.002 188.983 118.933L188.114 118.822L185.194 107.545C186.374 107.688 187.394 107.648 188.255 107.425C189.41 107.126 190.329 106.608 191.012 105.87C191.69 105.112 192.206 103.948 192.561 102.377C192.911 100.785 192.908 98.5675 192.553 95.7241C192.218 92.8752 191.516 89.3823 190.445 85.2452L186.75 70.9757L221.589 61.9549Z"/>
<path d="M277.606 82.8736C274.617 84.7753 272.699 87.5878 271.854 91.311C271.009 95.0342 271.522 98.4094 273.393 101.437C275.264 104.464 277.997 106.386 281.594 107.202C285.19 108.018 288.475 107.463 291.448 105.535C294.443 103.612 296.363 100.789 297.208 97.0659C298.053 93.3428 297.537 89.9781 295.662 86.972C293.812 83.9495 291.089 82.0301 287.493 81.2138C283.896 80.3975 280.601 80.9508 277.606 82.8736ZM306.321 81.3169C310.18 87.1531 311.362 93.3608 309.869 99.9398C308.375 106.519 304.626 111.618 298.622 115.238C292.643 118.841 286.121 119.841 279.055 118.237C272.011 116.638 266.56 112.921 262.701 107.085C258.869 101.232 257.7 95.0161 259.193 88.4371C260.686 81.858 264.422 76.7668 270.401 73.1634C276.406 69.5436 282.93 68.5332 289.975 70.1322C297.04 71.736 302.489 75.4643 306.321 81.3169Z"/>
<path d="M346.41 136.732L338.94 137.896L331.28 147.142L321.533 139.068L351.297 103.134L361.045 111.208L349.567 125.066L372.848 120.984L384.15 130.346L358.99 134.603L355.412 167.131L344.111 157.77L346.41 136.732Z"/>
<path d="M389.255 198.862L399.847 189.202L385.626 191.004L389.255 198.862ZM381.578 206.064L375.152 192.15L364.691 193.326L358.961 180.919L408.73 177.393L414.597 190.095L379.646 225.702L373.915 213.295L381.578 206.064Z"/>
<path d="M377.384 245.016L424.032 246.125L423.731 258.779L388.404 257.939L388.032 273.586L423.359 274.425L423.059 287.079L387.732 286.24L387.605 291.575L366.948 291.084L367.249 278.43L376.585 278.652L377.384 245.016Z"/>
<path d="M406.577 330.367L400.595 341.521L377.683 329.235L391.153 359.128L385.955 368.821L344.834 346.769L350.816 335.614L373.728 347.901L360.289 317.95L365.456 308.315L406.577 330.367Z"/>
<path d="M321.905 420.384L294.589 382.555L304.851 375.145L313.442 387.042L318.85 383.137L316.748 366.554L327.564 358.743L329.673 378.171C329.899 378.115 330.219 378.058 330.632 378C331.041 377.973 331.843 378.009 333.039 378.109C334.247 378.226 335.415 378.453 336.541 378.79C337.663 379.158 338.937 379.83 340.365 380.806C341.787 381.812 343.044 383.072 344.136 384.584C346.791 388.26 347.72 392.271 346.926 396.617C346.126 400.994 343.73 404.624 339.738 407.507L321.905 420.384ZM334.71 395.485C334.94 394.248 334.662 393.084 333.874 391.994C333.1 390.921 332.074 390.297 330.797 390.122C329.52 389.947 328.293 390.285 327.114 391.136L320.071 396.222L325.519 403.767L332.562 398.681C333.758 397.817 334.474 396.752 334.71 395.485Z"/>
</svg>
