<svg width="426" height="424" viewBox="0 0 426 424" fill="none" xmlns="http://www.w3.org/2000/svg">
<path d="M208.064 359.152L191.347 395.022L174.438 387.142C170.652 385.378 168.086 382.74 166.738 379.23C165.366 375.728 165.492 372.235 167.116 368.75C167.784 367.316 168.627 366.074 169.643 365.026C170.635 363.986 171.614 363.214 172.58 362.71C173.537 362.223 174.445 361.844 175.302 361.573C176.151 361.319 176.822 361.186 177.315 361.172L178.166 361.112L176.822 344.592L187.052 349.36L187.948 363.509L193.076 365.899L198.334 354.618L208.064 359.152ZM179.111 371.234C178.075 371.584 177.32 372.267 176.846 373.284C176.364 374.318 176.327 375.336 176.733 376.337C177.131 377.355 177.897 378.128 179.031 378.657L185.685 381.758L189.019 374.604L182.366 371.503C181.232 370.974 180.147 370.885 179.111 371.234Z" fill="#F1F3F5"/>
<path d="M149.518 330.003L136.324 314.524L143.212 308.652L163.371 332.3L133.253 357.973L113.453 334.744L120.342 328.872L133.178 343.931L137.904 339.903L128.003 328.289L134.472 322.775L144.372 334.389L149.518 330.003Z" fill="#F1F3F5"/>
<path d="M126.965 264.306L135.357 291.29L97.5678 303.042L94.3798 292.791L122.998 283.891L117.794 267.158L126.965 264.306Z" fill="#F1F3F5"/>
<path d="M99.5667 230.741C101.382 233.136 103.892 234.562 107.098 235.018C110.304 235.473 113.121 234.805 115.55 233.014C117.979 231.222 119.414 228.778 119.854 225.681C120.294 222.585 119.596 219.847 117.76 217.467C115.927 215.07 113.407 213.643 110.202 213.187C106.996 212.731 104.188 213.401 101.777 215.195C99.3505 216.969 97.9172 219.404 97.477 222.5C97.0368 225.597 97.7333 228.344 99.5667 230.741ZM96.2563 206.577C100.922 202.911 106.087 201.48 111.751 202.286C117.416 203.091 121.987 205.906 125.464 210.73C128.925 215.533 130.223 220.977 129.358 227.06C128.496 233.126 125.732 237.992 121.067 241.659C116.386 245.304 111.213 246.725 105.548 245.919C99.8835 245.114 95.3205 242.31 91.8593 237.506C88.3826 232.682 87.0753 227.237 87.9376 221.172C88.8025 215.088 91.5754 210.223 96.2563 206.577Z" fill="#F1F3F5"/>
<path d="M123.9 163.747C124.4 166.736 125.972 169.166 128.616 171.035C131.261 172.904 134.083 173.581 137.083 173.065C140.083 172.55 142.518 170.97 144.387 168.326C145.545 166.689 146.293 164.897 146.632 162.951C146.971 161.005 147.016 159.46 146.766 158.315L146.415 156.613L155.543 155.461C155.638 155.709 155.751 156.059 155.881 156.512C156.008 156.939 156.144 157.846 156.289 159.234C156.431 160.595 156.437 161.974 156.307 163.369C156.187 164.749 155.779 166.409 155.083 168.351C154.413 170.287 153.461 172.127 152.229 173.87C148.682 178.888 143.997 181.963 138.172 183.095C132.343 184.202 127.092 183.104 122.42 179.801C117.748 176.498 114.968 171.92 114.082 166.066C113.191 160.187 114.519 154.738 118.066 149.721C119.287 147.993 120.675 146.507 122.23 145.263C123.786 144.019 125.234 143.117 126.577 142.557C127.93 141.981 129.188 141.541 130.35 141.235C131.522 140.915 132.451 140.749 133.135 140.737L134.155 140.681L135.939 149.918C135.755 149.923 135.52 149.937 135.234 149.96C134.932 149.972 134.357 150.084 133.509 150.296C132.646 150.497 131.827 150.763 131.053 151.094C130.263 151.414 129.385 151.954 128.42 152.714C127.451 153.448 126.621 154.303 125.931 155.28C124.062 157.924 123.385 160.746 123.9 163.747Z" fill="#F1F3F5"/>
<path d="M184.578 124.323L175.752 115.962L178.157 127.879L184.578 124.323ZM191.146 130.371L179.775 136.668L181.417 145.443L171.277 151.059L165.213 109.179L175.594 103.43L207.876 130.79L197.737 136.405L191.146 130.371Z" fill="#F1F3F5"/>
<path d="M217.569 89.131L250.248 86.4955L251.022 96.0956L240.019 96.983L242.426 126.829L231.726 127.692L229.319 97.846L218.343 98.7312L217.569 89.131Z" fill="#F1F3F5"/>
<path d="M272.496 130.006L282.98 91.8458L293.331 94.6899L282.847 132.85L272.496 130.006Z" fill="#F1F3F5"/>
<path d="M330.951 126.526C327.971 126.909 325.485 128.377 323.494 130.931C321.504 133.485 320.681 136.261 321.027 139.26C321.372 142.258 322.778 144.719 325.245 146.641C327.712 148.564 330.434 149.321 333.412 148.913C336.404 148.516 338.895 147.04 340.886 144.486C342.876 141.932 343.693 139.163 343.336 136.179C343.005 133.192 341.607 130.737 339.14 128.815C336.673 126.892 333.943 126.129 330.951 126.526ZM353.558 135.679C354.417 141.55 353.088 146.742 349.571 151.255C346.053 155.768 341.337 158.332 335.423 158.947C329.534 159.559 324.167 157.977 319.32 154.199C314.488 150.433 311.642 145.614 310.783 139.743C309.95 133.869 311.292 128.675 314.809 124.162C318.327 119.649 323.03 117.087 328.919 116.475C334.833 115.859 340.206 117.435 345.039 121.201C349.885 124.979 352.725 129.804 353.558 135.679Z" fill="#F1F3F5"/>
<path d="M393.757 189.667L398.142 199.467L362.018 215.628L358.231 207.164L371.416 182.642L351.289 191.647L346.904 181.848L383.028 165.686L386.837 174.2L373.63 198.672L393.757 189.667Z" fill="#F1F3F5"/>
</svg>
