<svg width="430" height="428" viewBox="0 0 430 428" fill="none" xmlns="http://www.w3.org/2000/svg">
<path d="M210.994 361.905L194.827 398.026L177.799 390.405C173.987 388.699 171.38 386.101 169.979 382.611C168.553 379.131 168.626 375.636 170.197 372.127C170.843 370.682 171.667 369.428 172.667 368.364C173.643 367.309 174.61 366.523 175.568 366.004C176.518 365.502 177.419 365.109 178.272 364.826C179.117 364.559 179.786 364.415 180.279 364.394L181.129 364.321L179.532 347.823L189.835 352.434L190.947 366.568L196.11 368.879L201.195 357.519L210.994 361.905ZM182.229 374.428C181.198 374.793 180.454 375.488 179.996 376.512C179.53 377.553 179.507 378.571 179.929 379.566C180.343 380.578 181.121 381.339 182.262 381.85L188.963 384.849L192.187 377.645L185.487 374.646C184.345 374.135 183.259 374.062 182.229 374.428Z" fill="#F1F3F5"/>
<path d="M152.956 336.042L139.29 320.979L145.994 314.897L166.873 337.911L137.563 364.502L117.055 341.896L123.759 335.814L137.054 350.469L141.653 346.297L131.399 334.994L137.694 329.282L147.949 340.585L152.956 336.042Z" fill="#F1F3F5"/>
<path d="M127.534 272.193L136.253 299.074L98.6091 311.283L95.2971 301.072L123.805 291.825L118.399 275.156L127.534 272.193Z" fill="#F1F3F5"/>
<path d="M96.9783 242.809C99.0136 245.02 101.649 246.2 104.883 246.348C108.118 246.495 110.859 245.562 113.106 243.547C115.353 241.531 116.548 238.962 116.69 235.837C116.833 232.713 115.878 230.054 113.823 227.86C111.769 225.648 109.125 224.468 105.89 224.321C102.656 224.173 99.9242 225.107 97.6956 227.123C95.4495 229.12 94.255 231.68 94.1121 234.805C93.9692 237.929 94.9246 240.597 96.9783 242.809ZM91.3783 219.071C95.6726 214.976 100.678 213.059 106.394 213.321C112.109 213.582 116.928 215.948 120.849 220.419C124.752 224.87 126.564 230.165 126.283 236.303C126.003 242.424 123.716 247.531 119.422 251.626C115.11 255.701 110.096 257.609 104.38 257.347C98.6644 257.086 93.8548 254.73 89.9513 250.278C86.0302 245.808 84.2097 240.512 84.4895 234.392C84.7702 228.254 87.0665 223.147 91.3783 219.071Z" fill="#F1F3F5"/>
<path d="M116.57 174.563C117.228 177.522 118.926 179.865 121.666 181.591C124.405 183.317 127.26 183.844 130.228 183.17C133.197 182.497 135.545 180.79 137.271 178.051C138.34 176.354 138.992 174.525 139.228 172.564C139.463 170.603 139.426 169.057 139.116 167.927L138.675 166.246L147.729 164.613C147.837 164.855 147.969 165.198 148.123 165.644C148.272 166.064 148.455 166.962 148.675 168.34C148.888 169.692 148.967 171.068 148.911 172.468C148.865 173.853 148.546 175.533 147.953 177.508C147.386 179.478 146.534 181.365 145.396 183.171C142.12 188.37 137.604 191.689 131.847 193.128C126.085 194.542 120.783 193.724 115.943 190.673C111.102 187.623 108.084 183.198 106.888 177.4C105.687 171.576 106.725 166.065 110.001 160.866C111.129 159.076 112.436 157.519 113.923 156.194C115.41 154.87 116.809 153.892 118.12 153.261C119.441 152.614 120.673 152.108 121.817 151.742C122.971 151.36 123.89 151.145 124.573 151.097L125.588 150.986L127.859 160.116C127.676 160.131 127.442 160.157 127.157 160.195C126.857 160.223 126.289 160.366 125.453 160.622C124.602 160.868 123.798 161.177 123.042 161.549C122.27 161.911 121.423 162.497 120.499 163.306C119.57 164.091 118.787 164.989 118.149 166.001C116.423 168.74 115.896 171.594 116.57 174.563Z" fill="#F1F3F5"/>
<path d="M185.236 125.251L176.488 116.809L178.782 128.748L185.236 125.251ZM191.747 131.36L180.318 137.551L181.879 146.342L171.688 151.863L166.012 109.929L176.446 104.276L208.473 131.934L198.282 137.455L191.747 131.36Z" fill="#F1F3F5"/>
<path d="M217.717 89.3794L250.435 87.2706L251.054 96.882L240.038 97.5921L241.964 127.473L231.251 128.163L229.325 98.2826L218.337 98.9908L217.717 89.3794Z" fill="#F1F3F5"/>
<path d="M272.523 129.772L282.376 91.4441L292.773 94.1168L282.921 132.445L272.523 129.772Z" fill="#F1F3F5"/>
<path d="M328.905 123.577C325.922 123.938 323.426 125.389 321.418 127.929C319.409 130.469 318.567 133.24 318.892 136.241C319.217 139.241 320.606 141.712 323.059 143.651C325.512 145.591 328.229 146.367 331.21 145.98C334.204 145.603 336.706 144.145 338.714 141.605C340.722 139.065 341.559 136.302 341.223 133.316C340.912 130.326 339.531 127.862 337.077 125.922C334.624 123.982 331.9 123.2 328.905 123.577ZM351.448 132.887C352.266 138.764 350.9 143.946 347.352 148.435C343.803 152.923 339.069 155.454 333.15 156.028C327.258 156.599 321.901 154.979 317.081 151.168C312.275 147.368 309.463 142.529 308.645 136.652C307.853 130.772 309.231 125.588 312.78 121.1C316.329 116.612 321.05 114.082 326.942 113.511C332.861 112.937 338.223 114.55 343.029 118.35C347.849 122.161 350.656 127.007 351.448 132.887Z" fill="#F1F3F5"/>
<path d="M390.611 179.234L395.566 188.757L360.46 207.024L356.18 198.799L367.893 173.54L348.333 183.719L343.378 174.195L378.483 155.928L382.789 164.203L371.05 189.412L390.611 179.234Z" fill="#F1F3F5"/>
</svg>
