<svg width="284" height="300" viewBox="0 0 284 300" fill="none" xmlns="http://www.w3.org/2000/svg">
<path fill-rule="evenodd" clip-rule="evenodd" d="M131.052 2.64281L134.063 41.5843L162.142 39.4138L162.744 47.2075L173.308 46.3909L171.975 29.147L167.521 29.4912L165.242 0L154.678 0.816564L156.958 30.3078L143.896 31.3175L141.616 1.82625L131.052 2.64281ZM94.2485 36.0894L85.1082 28.3152L88.1076 39.9337L94.2485 36.0894ZM101.04 41.7028L90.1665 48.5098L92.2484 57.0714L82.5522 63.1413L74.3637 22.1879L84.2909 15.9735L117.551 41.2319L107.855 47.3018L101.04 41.7028ZM49.6934 84.2301L47.8352 78.1803L65.5393 77.5677L71.9421 67.0845L44.5661 68.0133L38.0277 47.6793L31.625 58.1625L37.7924 76.9614L24.9383 69.1106L19.4157 78.1526L52.748 98.5108L58.2706 89.4688L49.6934 84.2301ZM12.2677 141.093C14.2497 143.299 16.8359 144.495 20.0264 144.68C23.2168 144.864 25.9329 143.976 28.1746 142.014C30.4163 140.052 31.6264 137.531 31.805 134.449C31.9835 131.367 31.0722 128.732 29.0711 126.542C27.0709 124.335 24.4756 123.139 21.2852 122.954C18.0948 122.769 15.3878 123.658 13.1642 125.621C10.9235 127.564 9.71392 130.077 9.53537 133.159C9.35681 136.24 10.2676 138.885 12.2677 141.093ZM7.02662 117.599C11.3138 113.609 16.2762 111.778 21.9138 112.105C27.5515 112.431 32.2782 114.824 36.0941 119.283C39.8928 123.723 41.6168 128.97 41.266 135.025C40.9162 141.061 38.5978 146.074 34.3106 150.063C30.0064 154.034 25.0354 155.856 19.3978 155.529C13.7601 155.202 9.04191 152.819 5.24316 148.379C1.42733 143.92 -0.30571 138.673 0.044051 132.636C0.394862 126.582 2.72239 121.569 7.02662 117.599ZM38.2243 174.661L3.03046 191.599L16.0942 218.743L27.2119 213.392C30.4351 211.841 33.1893 210.697 35.4744 209.96C37.7517 209.206 39.5723 208.844 40.9362 208.873C42.2838 208.909 43.3239 209.144 44.0564 209.577C44.7725 210.019 45.3471 210.689 45.7802 211.589C46.1031 212.26 46.3017 213.091 46.3761 214.083L55.1622 209.855L55.1124 209.123C55.0713 208.619 54.9317 207.91 54.6937 206.997C54.4642 206.06 54.1487 205.174 53.7471 204.339C53.0069 202.801 52.1121 201.549 51.0628 200.583C50.022 199.593 48.6569 198.829 46.9677 198.292C45.2784 197.755 43.3318 197.583 41.128 197.778C38.9078 197.98 36.2349 198.581 33.1094 199.581C29.9759 200.565 26.4621 201.995 22.5681 203.869L20.0648 205.074L16.2023 197.048L42.8308 184.232L38.2243 174.661ZM71.4884 242.216L55.6968 229.824L61.2121 222.796L85.3387 241.729L61.2263 272.455L37.5282 253.858L43.0435 246.83L58.4065 258.886L62.1898 254.065L50.3408 244.767L55.5197 238.167L67.3688 247.466L71.4884 242.216ZM121.773 299.071L104.64 295.188C100.46 294.241 97.3471 292.205 95.3 289.079C93.2488 285.97 92.6586 282.494 93.5293 278.652C94.4 274.809 96.4416 271.92 99.6541 269.986C102.845 268.065 106.521 267.576 110.683 268.519L117.483 270.059L120.071 258.637L130.404 260.978L121.773 299.071ZM107.298 286.044L113.54 287.459L115.388 279.304L109.146 277.889C107.942 277.616 106.822 277.791 105.788 278.413C104.753 279.035 104.113 279.886 103.869 280.966C103.62 282.064 103.828 283.117 104.494 284.124C105.159 285.131 106.094 285.771 107.298 286.044ZM205.509 11.0134L214.966 15.791L205.153 35.2152L229.893 23.3319L238.11 27.4831L220.498 62.3445L211.041 57.567L220.854 38.1428L196.066 50.0015L187.898 45.8749L205.509 11.0134ZM253.273 102.823L283.911 78.5991L272.491 64.1561C269.935 60.9228 266.812 59.0517 263.122 58.5428C259.459 58.0369 256.138 58.9608 253.161 61.3146C251.936 62.2831 250.929 63.3805 250.139 64.6067C249.375 65.8359 248.86 66.9262 248.593 67.8775C248.353 68.8318 248.205 69.8164 248.151 70.8313C248.111 71.835 248.11 72.5071 248.148 72.8476C248.211 73.1911 248.271 73.4566 248.327 73.644L232.157 76.1166L239.083 84.8764L252.874 82.5136L256.337 86.8935L246.701 94.5122L253.273 102.823ZM259.733 69.6257C260.616 68.9275 261.579 68.6522 262.621 68.8C263.69 68.9507 264.607 69.5104 265.372 70.4789L269.883 76.1835L263.772 81.0148L259.262 75.3103C258.507 74.356 258.18 73.3417 258.28 72.2675C258.379 71.1933 258.864 70.3127 259.733 69.6257Z" fill="#201F2A"/>
<path fill-rule="evenodd" clip-rule="evenodd" d="M131.052 2.64281L134.063 41.5843L162.142 39.4138L162.744 47.2075L173.308 46.3909L171.975 29.147L167.521 29.4912L165.242 0L154.678 0.816564L156.958 30.3078L143.896 31.3175L141.616 1.82625L131.052 2.64281ZM94.2485 36.0894L85.1082 28.3152L88.1076 39.9337L94.2485 36.0894ZM101.04 41.7028L90.1665 48.5098L92.2484 57.0714L82.5522 63.1413L74.3637 22.1879L84.2909 15.9735L117.551 41.2319L107.855 47.3018L101.04 41.7028ZM49.6934 84.2301L47.8352 78.1803L65.5393 77.5677L71.9421 67.0845L44.5661 68.0133L38.0277 47.6793L31.625 58.1625L37.7924 76.9614L24.9383 69.1106L19.4157 78.1526L52.748 98.5108L58.2706 89.4688L49.6934 84.2301ZM12.2677 141.093C14.2497 143.299 16.8359 144.495 20.0264 144.68C23.2168 144.864 25.9329 143.976 28.1746 142.014C30.4163 140.052 31.6264 137.531 31.805 134.449C31.9835 131.367 31.0722 128.732 29.0711 126.542C27.0709 124.335 24.4756 123.139 21.2852 122.954C18.0948 122.769 15.3878 123.658 13.1642 125.621C10.9235 127.564 9.71392 130.077 9.53537 133.159C9.35681 136.24 10.2676 138.885 12.2677 141.093ZM7.02662 117.599C11.3138 113.609 16.2762 111.778 21.9138 112.105C27.5515 112.431 32.2782 114.824 36.0941 119.283C39.8928 123.723 41.6168 128.97 41.266 135.025C40.9162 141.061 38.5978 146.074 34.3106 150.063C30.0064 154.034 25.0354 155.856 19.3978 155.529C13.7601 155.202 9.04191 152.819 5.24316 148.379C1.42733 143.92 -0.30571 138.673 0.044051 132.636C0.394862 126.582 2.72239 121.569 7.02662 117.599ZM38.2243 174.661L3.03046 191.599L16.0942 218.743L27.2119 213.392C30.4351 211.841 33.1893 210.697 35.4744 209.96C37.7517 209.206 39.5723 208.844 40.9362 208.873C42.2838 208.909 43.3239 209.144 44.0564 209.577C44.7725 210.019 45.3471 210.689 45.7802 211.589C46.1031 212.26 46.3017 213.091 46.3761 214.083L55.1622 209.855L55.1124 209.123C55.0713 208.619 54.9317 207.91 54.6937 206.997C54.4642 206.06 54.1487 205.174 53.7471 204.339C53.0069 202.801 52.1121 201.549 51.0628 200.583C50.022 199.593 48.6569 198.829 46.9677 198.292C45.2784 197.755 43.3318 197.583 41.128 197.778C38.9078 197.98 36.2349 198.581 33.1094 199.581C29.9759 200.565 26.4621 201.995 22.5681 203.869L20.0648 205.074L16.2023 197.048L42.8308 184.232L38.2243 174.661ZM71.4884 242.216L55.6968 229.824L61.2121 222.796L85.3387 241.729L61.2263 272.455L37.5282 253.858L43.0435 246.83L58.4065 258.886L62.1898 254.065L50.3408 244.767L55.5197 238.167L67.3688 247.466L71.4884 242.216ZM121.773 299.071L104.64 295.188C100.46 294.241 97.3471 292.205 95.3 289.079C93.2488 285.97 92.6586 282.494 93.5293 278.652C94.4 274.809 96.4416 271.92 99.6541 269.986C102.845 268.065 106.521 267.576 110.683 268.519L117.483 270.059L120.071 258.637L130.404 260.978L121.773 299.071ZM107.298 286.044L113.54 287.459L115.388 279.304L109.146 277.889C107.942 277.616 106.822 277.791 105.788 278.413C104.753 279.035 104.113 279.886 103.869 280.966C103.62 282.064 103.828 283.117 104.494 284.124C105.159 285.131 106.094 285.771 107.298 286.044ZM205.509 11.0134L214.966 15.791L205.153 35.2152L229.893 23.3319L238.11 27.4831L220.498 62.3445L211.041 57.567L220.854 38.1428L196.066 50.0015L187.898 45.8749L205.509 11.0134ZM253.273 102.823L283.911 78.5991L272.491 64.1561C269.935 60.9228 266.812 59.0517 263.122 58.5428C259.459 58.0369 256.138 58.9608 253.161 61.3146C251.936 62.2831 250.929 63.3805 250.139 64.6067C249.375 65.8359 248.86 66.9262 248.593 67.8775C248.353 68.8318 248.205 69.8164 248.151 70.8313C248.111 71.835 248.11 72.5071 248.148 72.8476C248.211 73.1911 248.271 73.4566 248.327 73.644L232.157 76.1166L239.083 84.8764L252.874 82.5136L256.337 86.8935L246.701 94.5122L253.273 102.823ZM259.733 69.6257C260.616 68.9275 261.579 68.6522 262.621 68.8C263.69 68.9507 264.607 69.5104 265.372 70.4789L269.883 76.1835L263.772 81.0148L259.262 75.3103C258.507 74.356 258.18 73.3417 258.28 72.2675C258.379 71.1933 258.864 70.3127 259.733 69.6257Z" fill="#F1F3F5"/>
</svg>
