<svg width="296" height="303" viewBox="0 0 296 303" fill="none" xmlns="http://www.w3.org/2000/svg">
<path fill-rule="evenodd" clip-rule="evenodd" d="M121.658 4.91001L132.157 3.48571L135.083 25.0504L148.729 1.23757L157.851 0L163.102 38.7031L152.603 40.1274L149.677 18.5627L135.977 42.3829L126.909 43.6131L121.658 4.91001ZM106.539 46.7975L83.4481 15.2965L55.3301 35.9076L78.4209 67.4086L86.9661 61.1447L69.4951 37.3103L80.5226 29.2269L97.9937 53.0613L106.539 46.7975ZM41.0562 144.207L38.7621 162.75L0 157.955L2.15695 140.52C2.64965 136.537 4.06464 133.456 6.40193 131.275C8.73921 129.094 11.2864 128.174 14.0436 128.515C15.1068 128.647 16.1038 128.944 17.0345 129.407C17.9472 129.867 18.6618 130.376 19.1783 130.934C19.6948 131.492 20.1391 132.041 20.5114 132.581C20.8679 133.101 21.114 133.552 21.2496 133.935L21.4564 134.482C21.5508 134.311 21.689 134.081 21.871 133.792C22.0373 133.483 22.4218 132.964 23.0245 132.233C23.6091 131.501 24.2547 130.867 24.9612 130.332C25.6677 129.798 26.6007 129.355 27.7602 129.004C28.9218 128.636 30.1514 128.532 31.4489 128.692C34.4763 129.067 36.9615 130.719 38.9043 133.649C40.8494 136.561 41.5667 140.08 41.0562 144.207ZM31.7645 151.208L32.6541 144.018C32.8057 142.793 32.56 141.747 31.917 140.881C31.274 140.014 30.4029 139.513 29.3037 139.377C28.1864 139.239 27.2104 139.512 26.3757 140.195C25.541 140.879 25.0478 141.833 24.8962 143.058L24.0067 150.249L31.7645 151.208ZM10.3453 142.658L9.62633 148.47L16.2489 149.289L16.9679 143.477C17.1038 142.378 16.9146 141.467 16.4002 140.745C15.8678 140.02 15.106 139.597 14.1149 139.474C13.1057 139.349 12.2637 139.575 11.5887 140.15C10.8958 140.723 10.4813 141.559 10.3453 142.658ZM269.797 187.893L275.484 191.699L272.965 197.908L278.652 201.713L281.068 195.757L286.719 199.577L284.314 205.509L292.385 210.899L289.242 218.647L281.171 213.257L278.755 219.214L286.836 224.579L283.683 232.353L275.612 226.962L273.093 233.171L267.432 229.376L269.95 223.167L264.263 219.361L261.857 225.293L256.171 221.487L258.587 215.53L250.53 210.176L253.673 202.427L261.73 207.782L264.135 201.85L256.089 196.47L259.232 188.722L267.289 194.077L269.797 187.893ZM275.509 209.462L269.822 205.656L267.416 211.587L273.093 215.418L275.509 209.462ZM228.468 252.212L225.683 237.213L234.476 229.477L238.302 253.246L259.437 259.538L250.644 267.274L238.057 263.112L240.583 276.126L231.79 283.862L228.241 262.098L205.152 255.276L213.945 247.54L228.468 252.212ZM185.298 279.053C186.039 282.162 185.639 284.983 184.096 287.516C182.558 290.067 180.287 291.7 177.285 292.416C174.282 293.132 171.527 292.697 169.021 291.111C166.501 289.546 164.871 287.21 164.129 284.101C163.388 280.992 163.787 278.163 165.325 275.612C166.846 273.065 169.108 271.434 172.11 270.718C175.113 270.002 177.876 270.435 180.4 272.017C182.924 273.599 184.557 275.944 185.298 279.053ZM153.558 286.622C154.868 292.115 158.051 296.34 163.105 299.298C168.146 302.277 173.617 303.063 179.516 301.656C185.398 300.254 189.924 297.084 193.096 292.146C196.255 287.23 197.179 282.025 195.869 276.532C194.559 271.039 191.384 266.803 186.343 263.824C181.288 260.866 175.82 260.089 169.938 261.491C164.039 262.898 159.51 266.06 156.351 270.976C153.179 275.913 152.248 281.129 153.558 286.622ZM113.468 296.146L116.589 284.547C117.08 282.723 116.952 281.138 116.206 279.79C115.437 278.454 114.167 277.548 112.396 277.072C111.326 276.784 110.243 276.652 109.146 276.677C108.026 276.714 107.196 276.829 106.655 277.022L105.811 277.331L101.606 292.953L91.3752 290.2L101.525 252.484L111.756 255.238L108.352 267.888C110.971 267.446 113.807 267.636 116.858 268.457C121.206 269.627 124.283 271.856 126.087 275.143C127.869 278.444 128.114 282.496 126.821 287.3L123.699 298.899L113.468 296.146ZM56.4671 245.531L51.7303 262.475L60.375 269.967L66.8462 241.623L68.0098 241.154C68.8468 240.798 69.8814 240.685 71.1136 240.816C72.3321 240.935 73.5039 241.482 74.6291 242.457C75.6171 243.314 76.3421 244.182 76.804 245.063L82.8333 238.106L82.5081 237.608C82.3014 237.237 81.93 236.723 81.3939 236.066C80.8442 235.397 80.2331 234.771 79.5607 234.189C77.1731 232.119 74.4375 231.034 71.3538 230.932C68.2581 230.845 65.0994 231.495 61.8775 232.884L32.5474 245.849L41.192 253.341L56.4671 245.531ZM223.547 18.9687L192.924 8.51744L189.854 17.5136L200.139 21.0237L190.593 48.9918L200.621 52.4139L210.166 24.4459L220.477 27.9649L223.547 18.9687ZM236.425 69.0192L251.076 82.7417L244.968 89.2619L222.585 68.2965L249.285 39.7904L271.271 60.3834L265.164 66.9036L250.911 53.5535L246.721 58.0263L257.714 68.3228L251.98 74.4454L240.987 64.1489L236.425 69.0192ZM294.289 108.916L287.811 92.5863L251.506 106.99L255.413 116.839L266.3 112.519L268.871 119.001C270.445 122.967 272.926 125.724 276.313 127.271C279.725 128.828 283.262 128.88 286.924 127.427C290.587 125.974 293.121 123.523 294.526 120.074C295.949 116.618 295.87 112.899 294.289 108.916ZM282.882 105.94L285.243 111.89C285.698 113.037 285.698 114.17 285.243 115.289C284.788 116.407 284.038 117.173 282.991 117.589C281.962 117.997 280.898 117.95 279.8 117.448C278.702 116.946 277.926 116.121 277.471 114.973L275.11 109.024L282.882 105.94Z" fill="#FEB251"/>
</svg>
