<svg width="341" height="339" viewBox="0 0 341 339" fill="none" xmlns="http://www.w3.org/2000/svg">
<path d="M137.064 287.152L120.347 323.022L103.438 315.142C99.6522 313.378 97.0856 310.74 95.7378 307.23C94.3656 303.728 94.4916 300.235 96.1159 296.75C96.7843 295.316 97.6267 294.074 98.6431 293.026C99.6351 291.986 100.614 291.214 101.58 290.71C102.537 290.223 103.445 289.844 104.302 289.573C105.151 289.319 105.822 289.186 106.315 289.172L107.166 289.112L105.822 272.592L116.052 277.36L116.948 291.509L122.076 293.899L127.334 282.618L137.064 287.152ZM108.111 299.234C107.075 299.584 106.32 300.267 105.846 301.284C105.364 302.318 105.327 303.336 105.733 304.337C106.131 305.355 106.897 306.128 108.031 306.657L114.685 309.758L118.019 302.604L111.365 299.503C110.232 298.974 109.147 298.885 108.111 299.234Z" fill="#F1F3F5"/>
<path d="M78.5184 258.003L65.3242 242.524L72.2129 236.652L92.3712 260.3L62.2541 285.973L42.4538 262.744L49.3425 256.872L62.1787 271.931L66.9042 267.903L57.004 256.288L63.4727 250.774L73.3728 262.389L78.5184 258.003Z" fill="#F1F3F5"/>
<path d="M55.964 192.306L64.356 219.29L26.5672 231.042L23.3792 220.791L51.9975 211.891L46.7935 195.158L55.964 192.306Z" fill="#F1F3F5"/>
<path d="M28.5669 158.742C30.3821 161.137 32.8925 162.562 36.0984 163.018C39.3042 163.474 42.1215 162.806 44.5505 161.014C46.9794 159.222 48.414 156.778 48.8542 153.681C49.2944 150.585 48.5965 147.847 46.7606 145.467C44.9273 143.07 42.4077 141.643 39.2019 141.187C35.996 140.731 33.1878 141.401 30.7771 143.195C28.3507 144.969 26.9174 147.404 26.4772 150.5C26.037 153.597 26.7336 156.344 28.5669 158.742ZM25.2565 134.578C29.9218 130.911 35.0869 129.48 40.7517 130.286C46.4165 131.091 50.9873 133.906 54.4641 138.73C57.9252 143.533 59.2234 148.977 58.3585 155.06C57.4962 161.126 54.7324 165.992 50.0671 169.659C45.3862 173.304 40.2134 174.725 34.5485 173.919C28.8837 173.114 24.3207 170.31 20.8596 165.506C17.3828 160.682 16.0756 155.237 16.9379 149.172C17.8028 143.088 20.5756 138.223 25.2565 134.578Z" fill="#F1F3F5"/>
<path d="M52.9005 91.7465C53.4008 94.7361 54.973 97.1655 57.6171 99.0345C60.2613 100.904 63.0835 101.581 66.0838 101.065C69.084 100.55 71.5187 98.9703 73.3878 96.3261C74.5453 94.6886 75.2936 92.8969 75.6326 90.9511C75.9716 89.0053 76.0164 87.4598 75.767 86.3147L75.4153 84.6129L84.5432 83.4611C84.6385 83.7087 84.7514 84.0589 84.882 84.5117C85.0082 84.9388 85.1442 85.8461 85.29 87.2334C85.4315 88.5951 85.4372 89.9735 85.3072 91.3686C85.1878 92.7487 84.78 94.4093 84.0838 96.3504C83.4132 98.2872 82.462 100.127 81.2301 101.87C77.6831 106.888 72.9973 109.963 67.1726 111.095C61.3436 112.202 56.0929 111.104 51.4205 107.801C46.7482 104.498 43.9688 99.9199 43.0823 94.0662C42.1914 88.1869 43.5194 82.7383 47.0664 77.7204C48.2877 75.9927 49.6759 74.5069 51.2311 73.263C52.7862 72.0192 54.2351 71.117 55.5776 70.5564C56.9307 69.9808 58.1882 69.5405 59.3502 69.2353C60.5228 68.9151 61.4513 68.7491 62.1356 68.7372L63.1555 68.6808L64.9399 77.9178C64.756 77.923 64.5208 77.937 64.2343 77.9598C63.9328 77.972 63.358 78.0839 62.51 78.2955C61.6469 78.4966 60.828 78.7626 60.0533 79.0936C59.2635 79.4141 58.3861 79.9541 57.421 80.7139C56.4515 81.448 55.6216 82.3033 54.9313 83.2798C53.0622 85.924 52.3853 88.7462 52.9005 91.7465Z" fill="#F1F3F5"/>
<path d="M113.579 52.3228L104.752 43.9614L107.157 55.8793L113.579 52.3228ZM120.146 58.3705L108.775 64.668L110.417 73.4433L100.278 79.0588L94.2135 37.1793L104.594 31.4301L136.877 58.7894L126.737 64.4049L120.146 58.3705Z" fill="#F1F3F5"/>
<path d="M146.569 17.131L179.248 14.4954L180.022 24.0956L169.019 24.983L171.426 54.8289L160.726 55.6918L158.319 25.846L147.343 26.7312L146.569 17.131Z" fill="#F1F3F5"/>
<path d="M201.496 58.006L211.981 19.8459L222.332 22.69L211.848 60.85L201.496 58.006Z" fill="#F1F3F5"/>
<path d="M259.951 54.5264C256.971 54.909 254.485 56.3773 252.495 58.9313C250.504 61.4852 249.681 64.2614 250.027 67.2599C250.372 70.2583 251.779 72.7189 254.246 74.6416C256.712 76.5643 259.435 77.3214 262.412 76.9129C265.404 76.5158 267.895 75.0402 269.886 72.4863C271.877 69.9323 272.693 67.1634 272.337 64.1794C272.006 61.1923 270.607 58.7374 268.14 56.8147C265.673 54.892 262.943 54.1292 259.951 54.5264ZM282.559 63.6791C283.418 69.5503 282.088 74.7423 278.571 79.2553C275.054 83.7682 270.338 86.3323 264.423 86.9476C258.534 87.5596 253.167 85.9769 248.32 82.1994C243.488 78.4332 240.642 73.6145 239.783 67.7433C238.95 61.8689 240.292 56.6752 243.81 52.1623C247.327 47.6493 252.03 45.0868 257.919 44.4747C263.833 43.8595 269.207 45.435 274.039 49.2012C278.886 52.9787 281.725 57.8047 282.559 63.6791Z" fill="#F1F3F5"/>
<path d="M322.758 117.667L327.142 127.466L291.019 143.628L287.232 135.164L300.417 110.642L280.289 119.647L275.905 109.847L312.029 93.6856L315.838 102.2L302.631 126.672L322.758 117.667Z" fill="#F1F3F5"/>
</svg>
