<svg width="882" height="883" viewBox="0 0 882 883" fill="none" xmlns="http://www.w3.org/2000/svg">
<path d="M268.004 309.129L432.623 24.0008L717.751 188.62L553.132 473.748L268.004 309.129Z" fill="white"/>
<path d="M718.091 601.394C729.943 580.845 722.909 554.571 702.38 542.707C681.852 530.844 655.602 537.884 643.75 558.432C631.898 578.98 638.931 605.255 659.46 617.119C679.989 628.982 706.238 621.942 718.091 601.394Z" fill="#FB5235"/>
<path fill-rule="evenodd" clip-rule="evenodd" d="M560.124 608.448C519.248 584.824 505.243 532.506 528.844 491.591C552.444 450.675 604.713 436.656 645.59 460.279C645.766 460.38 645.941 460.482 646.116 460.585L645.588 460.279L560.124 608.448Z" fill="#53B443"/>
<path fill-rule="evenodd" clip-rule="evenodd" d="M414.58 593.964C346.512 554.627 323.864 466.337 363.995 396.761C404.126 327.186 491.839 302.673 559.907 342.01C559.937 342.027 559.966 342.044 559.996 342.062L559.909 342.011L414.582 593.965C414.581 593.964 414.581 593.964 414.58 593.964Z" fill="#53B443"/>
<path fill-rule="evenodd" clip-rule="evenodd" d="M229.607 536.831C229.311 536.662 229.015 536.492 228.719 536.321C140.483 485.329 111.125 370.879 163.146 280.689C215.168 190.499 328.87 158.723 417.106 209.715C417.108 209.716 417.11 209.717 417.112 209.718L228.727 536.322L229.607 536.831Z" fill="#53B443"/>
</svg>
